# Blender v2.77 (sub 0) OBJ File: 'plunger.blend'
# www.blender.org
mtllib plunger.mtl
o Cube
v 0.000000 1.125000 -1.875000
v 1.125000 0.000000 -1.875000
v 0.088267 1.121532 -1.875000
v 0.175989 1.111149 -1.875000
v 0.262627 1.093916 -1.875000
v 0.347645 1.069939 -1.875000
v 0.430519 1.039364 -1.874999
v 0.510740 1.002382 -1.874999
v 0.587811 0.959220 -1.874999
v 0.661259 0.910144 -1.874999
v 0.730630 0.855457 -1.874999
v 0.795496 0.795495 -1.874999
v 0.855457 0.730629 -1.874999
v 0.910145 0.661258 -1.874999
v 0.959221 0.587811 -1.874999
v 1.002383 0.510739 -1.874999
v 1.039365 0.430519 -1.874999
v 1.069939 0.347644 -1.874999
v 1.093917 0.262626 -1.874999
v 1.111150 0.175989 -1.874999
v 1.121532 0.088266 -1.875000
v 1.125000 0.000000 1.875000
v -0.000001 1.125000 1.875000
v 1.121532 0.088266 1.875000
v 1.111149 0.175989 1.875001
v 1.093916 0.262626 1.875001
v 1.069938 0.347644 1.875001
v 1.039364 0.430519 1.875001
v 1.002382 0.510739 1.875001
v 0.959220 0.587811 1.875001
v 0.910144 0.661258 1.875001
v 0.855456 0.730629 1.875001
v 0.795494 0.795495 1.875001
v 0.730628 0.855457 1.875001
v 0.661258 0.910144 1.875001
v 0.587810 0.959220 1.875001
v 0.510739 1.002382 1.875001
v 0.430518 1.039364 1.875000
v 0.347643 1.069939 1.875000
v 0.262625 1.093916 1.875000
v 0.175988 1.111149 1.875000
v 0.088266 1.121532 1.875000
v -0.000000 1.125000 1.875000
v -1.125000 0.000000 1.875000
v -0.088267 1.121532 1.875000
v -0.175989 1.111149 1.875000
v -0.262626 1.093916 1.875000
v -0.347644 1.069939 1.875000
v -0.430519 1.039364 1.875000
v -0.510740 1.002382 1.875000
v -0.587811 0.959220 1.875000
v -0.661259 0.910144 1.875000
v -0.730629 0.855457 1.875000
v -0.795495 0.795495 1.875000
v -0.855457 0.730629 1.875000
v -0.910145 0.661258 1.875000
v -0.959220 0.587811 1.875000
v -1.002383 0.510739 1.875000
v -1.039365 0.430519 1.874999
v -1.069939 0.347644 1.874999
v -1.093916 0.262626 1.874999
v -1.111150 0.175989 1.874999
v -1.121532 0.088266 1.874999
v -1.125000 0.000000 -1.875000
v 0.000000 1.125000 -1.875000
v -1.121532 0.088266 -1.875000
v -1.111149 0.175989 -1.875000
v -1.093916 0.262626 -1.875000
v -1.069938 0.347644 -1.875000
v -1.039364 0.430519 -1.875000
v -1.002382 0.510739 -1.875000
v -0.959220 0.587811 -1.875000
v -0.910144 0.661258 -1.875000
v -0.855456 0.730629 -1.875000
v -0.795495 0.795495 -1.875000
v -0.730629 0.855457 -1.875000
v -0.661258 0.910144 -1.875000
v -0.587811 0.959220 -1.875000
v -0.510739 1.002382 -1.875000
v -0.430519 1.039364 -1.875000
v -0.347644 1.069939 -1.875000
v -0.262626 1.093916 -1.875000
v -0.175989 1.111149 -1.875000
v -0.088266 1.121532 -1.875000
v -1.125000 0.000000 1.875000
v -0.000000 -1.125000 1.875000
v -1.121532 -0.088266 1.875000
v -1.111150 -0.175989 1.875000
v -1.093916 -0.262626 1.875000
v -1.069939 -0.347644 1.875000
v -1.039365 -0.430519 1.875000
v -1.002383 -0.510739 1.875000
v -0.959220 -0.587811 1.875000
v -0.910144 -0.661258 1.875000
v -0.855457 -0.730629 1.875000
v -0.795495 -0.795495 1.875000
v -0.730629 -0.855457 1.875000
v -0.661259 -0.910144 1.875000
v -0.587811 -0.959220 1.875000
v -0.510740 -1.002382 1.875000
v -0.430519 -1.039364 1.875000
v -0.347644 -1.069939 1.875000
v -0.262626 -1.093916 1.875000
v -0.175989 -1.111149 1.875000
v -0.088267 -1.121532 1.875000
v 0.000000 -1.125000 -1.875000
v -1.125000 0.000000 -1.875000
v -0.088266 -1.121532 -1.875000
v -0.175988 -1.111149 -1.875000
v -0.262626 -1.093916 -1.875000
v -0.347644 -1.069939 -1.875000
v -0.430518 -1.039364 -1.875000
v -0.510739 -1.002382 -1.875000
v -0.587810 -0.959220 -1.875000
v -0.661258 -0.910144 -1.875000
v -0.730629 -0.855457 -1.875000
v -0.795495 -0.795495 -1.875001
v -0.855456 -0.730629 -1.875001
v -0.910144 -0.661258 -1.875001
v -0.959220 -0.587811 -1.875001
v -1.002382 -0.510739 -1.875001
v -1.039364 -0.430519 -1.875001
v -1.069938 -0.347644 -1.875000
v -1.093916 -0.262626 -1.875000
v -1.111149 -0.175989 -1.875000
v -1.121532 -0.088266 -1.875000
v 1.125000 0.000000 -1.875000
v 0.000000 -1.125000 -1.875000
v 1.121532 -0.088266 -1.875000
v 1.111150 -0.175989 -1.875000
v 1.093917 -0.262626 -1.875000
v 1.069939 -0.347644 -1.875000
v 1.039365 -0.430519 -1.875000
v 1.002383 -0.510739 -1.875000
v 0.959220 -0.587811 -1.875000
v 0.910144 -0.661258 -1.875000
v 0.855457 -0.730629 -1.875000
v 0.795495 -0.795495 -1.875000
v 0.730629 -0.855457 -1.875000
v 0.661259 -0.910144 -1.875000
v 0.587811 -0.959220 -1.875000
v 0.510740 -1.002382 -1.875000
v 0.430519 -1.039364 -1.875000
v 0.347644 -1.069939 -1.875000
v 0.262626 -1.093916 -1.875000
v 0.175989 -1.111149 -1.875000
v 0.088267 -1.121532 -1.875000
v 0.000000 -1.125000 1.875000
v 1.125000 0.000000 1.875000
v 0.088267 -1.121532 1.875000
v 0.175989 -1.111149 1.875000
v 0.262626 -1.093916 1.875000
v 0.347644 -1.069939 1.875000
v 0.430519 -1.039364 1.875000
v 0.510740 -1.002382 1.875000
v 0.587811 -0.959220 1.875000
v 0.661259 -0.910144 1.875000
v 0.730629 -0.855457 1.875000
v 0.795495 -0.795495 1.875000
v 0.855457 -0.730629 1.875000
v 0.910144 -0.661258 1.875000
v 0.959220 -0.587811 1.875000
v 1.002382 -0.510739 1.875000
v 1.039364 -0.430519 1.875000
v 1.069939 -0.347644 1.875000
v 1.093916 -0.262626 1.875000
v 1.111149 -0.175989 1.875000
v 1.121532 -0.088266 1.875000
vt 0.0000 0.0000
vt 0.0000 0.0000
vt 0.0000 0.0000
vt 0.4015 0.9399
vt 0.4015 0.9399
vt 0.4015 0.6853
vt 1.0000 0.6252
vt 1.0000 0.0000
vt 1.0000 0.0000
vt 0.3545 0.8200
vt 0.3545 0.8200
vt 0.1842 1.0000
vt 0.9811 0.0000
vt 0.9910 0.6252
vt 0.9811 0.6252
vt 0.9910 0.0000
vt 1.0000 0.6252
vt 0.4798 0.0000
vt 0.4896 0.6252
vt 0.4798 0.6252
vt 0.4896 0.0000
vt 0.5002 0.6252
vt 0.5002 0.0000
vt 0.5115 0.6252
vt 0.5115 0.0000
vt 0.5234 0.6252
vt 0.5234 0.0000
vt 0.5358 0.6252
vt 0.5358 0.0000
vt 0.5487 0.6252
vt 0.5487 0.0000
vt 0.5619 0.6252
vt 0.5619 0.0000
vt 0.5754 0.6252
vt 0.5754 0.0000
vt 0.5892 0.6252
vt 0.5892 0.0000
vt 0.6031 0.6252
vt 0.6031 0.0000
vt 0.6170 0.6252
vt 0.6170 0.0000
vt 0.6309 0.6252
vt 0.6309 0.0000
vt 0.6447 0.6252
vt 0.6447 0.0000
vt 0.6582 0.6252
vt 0.6582 0.0000
vt 0.6714 0.6252
vt 0.6714 0.0000
vt 0.6843 0.6252
vt 0.6843 0.0000
vt 0.6967 0.6252
vt 0.6967 0.0000
vt 0.7086 0.6252
vt 0.4798 0.6252
vt 0.4692 0.0000
vt 0.4798 0.0000
vt 0.4692 0.6252
vt 0.4579 0.0000
vt 0.4579 0.6252
vt 0.4461 0.0000
vt 0.4461 0.6252
vt 0.4337 0.0000
vt 0.4337 0.6252
vt 0.4208 0.0000
vt 0.4208 0.6252
vt 0.4075 0.0000
vt 0.4075 0.6252
vt 0.3940 0.0000
vt 0.3940 0.6252
vt 0.3802 0.0000
vt 0.3802 0.6252
vt 0.3664 0.0000
vt 0.3664 0.6252
vt 0.3524 0.0000
vt 0.3524 0.6252
vt 0.3385 0.0000
vt 0.3248 0.6252
vt 0.3248 0.0000
vt 0.3112 0.0000
vt 0.3112 0.6252
vt 0.2980 0.0000
vt 0.2851 0.6252
vt 0.2851 0.0000
vt 0.2727 0.0000
vt 0.2727 0.6252
vt 0.2608 0.0000
vt 0.2608 0.6252
vt 0.2496 0.0000
vt 0.9592 0.0000
vt 0.9698 0.6252
vt 0.9592 0.6252
vt 0.9698 0.0000
vt 0.9811 0.6252
vt 0.0000 0.0000
vt 0.0000 0.0000
vt 0.0000 0.0000
vt 0.7086 0.0000
vt 0.7205 0.6252
vt 0.7086 0.6252
vt 0.7205 0.0000
vt 0.7329 0.6252
vt 0.7329 0.0000
vt 0.7457 0.6252
vt 0.7457 0.0000
vt 0.7590 0.6252
vt 0.7590 0.0000
vt 0.7725 0.6252
vt 0.7863 0.0000
vt 0.7863 0.6252
vt 0.8002 0.6252
vt 0.8002 0.0000
vt 0.8141 0.6252
vt 0.8141 0.0000
vt 0.8280 0.6252
vt 0.8280 0.0000
vt 0.8417 0.6252
vt 0.8553 0.0000
vt 0.8553 0.6252
vt 0.8685 0.6252
vt 0.8685 0.0000
vt 0.8814 0.6252
vt 0.8814 0.0000
vt 0.8938 0.6252
vt 0.8938 0.0000
vt 0.9057 0.6252
vt 0.9057 0.0000
vt 0.9170 0.6252
vt 0.9170 0.0000
vt 0.9275 0.6252
vt 0.2496 0.6252
vt 0.2385 0.0000
vt 0.2496 0.0000
vt 0.2385 0.6252
vt 0.2267 0.0000
vt 0.2267 0.6252
vt 0.2144 0.0000
vt 0.9592 0.6252
vt 0.9480 0.0000
vt 0.9592 0.0000
vt 0.9480 0.6252
vt 0.9374 0.0000
vt 0.9374 0.6252
vt 0.9275 0.0000
vt 0.0000 0.0000
vt 0.0092 0.6252
vt 0.0000 0.6252
vt 0.0092 0.0000
vt 0.0192 0.6252
vt 0.0192 0.0000
vt 0.0300 0.6252
vt 0.0300 0.0000
vt 0.0414 0.6252
vt 0.0414 0.0000
vt 0.0534 0.6252
vt 0.0534 0.0000
vt 0.0659 0.6252
vt 0.0659 0.0000
vt 0.0789 0.6252
vt 0.0789 0.0000
vt 0.0922 0.6252
vt 0.0922 0.0000
vt 0.1058 0.6252
vt 0.1058 0.0000
vt 0.1196 0.6252
vt 0.1196 0.0000
vt 0.1335 0.6252
vt 0.1335 0.0000
vt 0.1474 0.6252
vt 0.1474 0.0000
vt 0.1613 0.6252
vt 0.1613 0.0000
vt 0.1750 0.6252
vt 0.1750 0.0000
vt 0.1885 0.6252
vt 0.1885 0.0000
vt 0.2016 0.6252
vt 0.2016 0.0000
vt 0.2144 0.6252
vt 0.2144 0.6252
vt 0.0000 0.0000
vt 0.6620 0.6853
vt 0.6620 0.6853
vt 0.6710 0.6965
vt 0.6792 0.7084
vt 0.6865 0.7209
vt 0.6928 0.7341
vt 0.6981 0.7477
vt 0.7024 0.7617
vt 0.7057 0.7760
vt 0.7079 0.7905
vt 0.7090 0.8052
vt 0.7090 0.8200
vt 0.7024 0.8635
vt 0.7079 0.8346
vt 0.7057 0.8492
vt 0.6981 0.8775
vt 0.6928 0.8911
vt 0.6865 0.9042
vt 0.6792 0.9168
vt 0.6710 0.9287
vt 0.6620 0.9399
vt 0.6521 0.9503
vt 0.6521 0.9503
vt 0.6415 0.9599
vt 0.6521 0.6749
vt 0.6303 0.6566
vt 0.6415 0.6653
vt 0.6060 0.6423
vt 0.6184 0.6490
vt 0.5799 0.6321
vt 0.5931 0.6366
vt 0.5526 0.6263
vt 0.5663 0.6286
vt 0.5248 0.6252
vt 0.5387 0.6252
vt 0.4971 0.6286
vt 0.5109 0.6263
vt 0.4703 0.6366
vt 0.4836 0.6321
vt 0.4451 0.6490
vt 0.4575 0.6423
vt 0.4219 0.6653
vt 0.4332 0.6566
vt 0.4113 0.6749
vt 0.4113 0.6749
vt 0.6303 0.9685
vt 0.6184 0.9762
vt 0.6060 0.9829
vt 0.5931 0.9886
vt 0.5799 0.9931
vt 0.5663 0.9965
vt 0.5526 0.9988
vt 0.5387 1.0000
vt 0.5248 1.0000
vt 0.5109 0.9988
vt 0.4971 0.9965
vt 0.4836 0.9931
vt 0.4703 0.9886
vt 0.4575 0.9829
vt 0.4451 0.9762
vt 0.4332 0.9685
vt 0.4219 0.9599
vt 0.4113 0.9503
vt 0.3924 0.9287
vt 0.3770 0.9042
vt 0.3842 0.9168
vt 0.3653 0.8775
vt 0.3706 0.8911
vt 0.3578 0.8492
vt 0.3610 0.8635
vt 0.3545 0.8200
vt 0.3556 0.8346
vt 0.3545 0.8052
vt 0.3578 0.7760
vt 0.3556 0.7905
vt 0.3610 0.7617
vt 0.3706 0.7341
vt 0.3653 0.7477
vt 0.3842 0.7084
vt 0.3770 0.7209
vt 0.3924 0.6965
vt 1.0000 0.6252
vt 0.0000 0.8052
vt 0.0000 0.8052
vt 0.0011 0.7905
vt 0.0033 0.7760
vt 0.0065 0.7617
vt 0.0108 0.7477
vt 0.0162 0.7341
vt 0.0225 0.7209
vt 0.0298 0.7084
vt 0.0379 0.6965
vt 0.0470 0.6853
vt 0.0568 0.6749
vt 0.0906 0.6489
vt 0.0674 0.6653
vt 0.0787 0.6566
vt 0.1030 0.6423
vt 0.1158 0.6366
vt 0.1291 0.6321
vt 0.1426 0.6286
vt 0.1564 0.6263
vt 0.1703 0.6252
vt 0.1842 0.6252
vt 0.1842 0.6252
vt 0.1981 0.6263
vt 0.0000 0.8200
vt 0.0033 0.8492
vt 0.0011 0.8346
vt 0.0108 0.8775
vt 0.0065 0.8635
vt 0.0225 0.9042
vt 0.0162 0.8911
vt 0.0379 0.9287
vt 0.0298 0.9168
vt 0.0568 0.9503
vt 0.0470 0.9399
vt 0.0787 0.9685
vt 0.0674 0.9599
vt 0.1030 0.9829
vt 0.0906 0.9762
vt 0.1291 0.9931
vt 0.1158 0.9886
vt 0.1564 0.9988
vt 0.1426 0.9965
vt 0.1703 1.0000
vt 0.1703 1.0000
vt 0.2118 0.6286
vt 0.2254 0.6321
vt 0.2386 0.6366
vt 0.2515 0.6423
vt 0.2639 0.6490
vt 0.2758 0.6566
vt 0.2871 0.6653
vt 0.2976 0.6749
vt 0.3075 0.6853
vt 0.3165 0.6965
vt 0.3247 0.7084
vt 0.3320 0.7209
vt 0.3383 0.7341
vt 0.3437 0.7477
vt 0.3480 0.7617
vt 0.3512 0.7760
vt 0.3534 0.7905
vt 0.3545 0.8052
vt 0.3534 0.8346
vt 0.3480 0.8635
vt 0.3512 0.8492
vt 0.3383 0.8911
vt 0.3437 0.8775
vt 0.3247 0.9168
vt 0.3320 0.9042
vt 0.3075 0.9399
vt 0.3165 0.9287
vt 0.2976 0.9503
vt 0.2758 0.9685
vt 0.2871 0.9599
vt 0.2639 0.9762
vt 0.2386 0.9886
vt 0.2515 0.9829
vt 0.2118 0.9965
vt 0.2254 0.9931
vt 0.1981 0.9988
vt 1.0000 0.0000
vt 0.7086 0.0000
vt 0.3385 0.6252
vt 0.2980 0.6252
vt 0.2496 0.6252
vt 0.9811 0.0000
vt 0.0000 0.0000
vt 0.7725 0.0000
vt 0.8417 0.0000
vt 0.9275 0.0000
vt 0.9275 0.6252
vt 0.2144 0.0000
vn 0.0000 0.0000 1.0000
vn 0.0000 0.0000 -1.0000
vn 0.0000 -1.0000 0.0000
vn 0.0393 0.9992 0.0000
vn 0.1175 0.9931 0.0000
vn 0.1951 0.9808 0.0000
vn 0.2714 0.9625 0.0000
vn 0.3461 0.9382 0.0000
vn 0.4187 0.9081 0.0000
vn 0.4886 0.8725 0.0000
vn 0.5556 0.8315 0.0000
vn 0.6191 0.7853 0.0000
vn 0.6788 0.7343 0.0000
vn 0.7343 0.6788 0.0000
vn 0.7853 0.6191 0.0000
vn 0.8315 0.5556 0.0000
vn 0.8725 0.4886 0.0000
vn 0.9081 0.4187 0.0000
vn 0.9382 0.3461 0.0000
vn 0.9625 0.2714 0.0000
vn 0.9808 0.1951 0.0000
vn 0.9931 0.1175 0.0000
vn 0.9992 0.0393 0.0000
vn -0.0393 0.9992 0.0000
vn -0.1175 0.9931 -0.0000
vn -0.1951 0.9808 -0.0000
vn -0.2714 0.9625 -0.0000
vn -0.3461 0.9382 -0.0000
vn -0.4187 0.9081 -0.0000
vn -0.4886 0.8725 -0.0000
vn -0.5556 0.8315 -0.0000
vn -0.6191 0.7853 -0.0000
vn -0.6788 0.7343 -0.0000
vn -0.7343 0.6788 -0.0000
vn -0.7853 0.6191 -0.0000
vn -0.8315 0.5556 -0.0000
vn -0.8725 0.4886 -0.0000
vn -0.9081 0.4187 -0.0000
vn -0.9382 0.3461 -0.0000
vn -0.9625 0.2714 -0.0000
vn -0.9808 0.1951 -0.0000
vn -0.9931 0.1175 -0.0000
vn -0.9992 0.0393 -0.0000
vn -0.9992 -0.0393 -0.0000
vn -0.9931 -0.1175 -0.0000
vn -0.9808 -0.1951 -0.0000
vn -0.9625 -0.2714 -0.0000
vn -0.9382 -0.3461 -0.0000
vn -0.9081 -0.4187 -0.0000
vn -0.8725 -0.4886 -0.0000
vn -0.8315 -0.5556 -0.0000
vn -0.7853 -0.6191 -0.0000
vn -0.7343 -0.6788 -0.0000
vn -0.6788 -0.7343 -0.0000
vn -0.6191 -0.7853 -0.0000
vn -0.5556 -0.8315 -0.0000
vn -0.4886 -0.8725 -0.0000
vn -0.4187 -0.9081 -0.0000
vn -0.3461 -0.9382 -0.0000
vn -0.2714 -0.9625 -0.0000
vn -0.1951 -0.9808 0.0000
vn -0.1175 -0.9931 -0.0000
vn -0.0393 -0.9992 -0.0000
vn 0.9992 -0.0393 0.0000
vn 0.9931 -0.1175 0.0000
vn 0.9808 -0.1951 0.0000
vn 0.9625 -0.2714 0.0000
vn 0.9382 -0.3461 0.0000
vn 0.9081 -0.4187 0.0000
vn 0.8725 -0.4886 0.0000
vn 0.8315 -0.5556 0.0000
vn 0.7853 -0.6191 0.0000
vn 0.7343 -0.6788 0.0000
vn 0.6788 -0.7343 0.0000
vn 0.6191 -0.7853 0.0000
vn 0.5556 -0.8315 0.0000
vn 0.4886 -0.8725 0.0000
vn 0.4187 -0.9081 -0.0000
vn 0.3461 -0.9382 0.0000
vn 0.2714 -0.9625 0.0000
vn 0.1951 -0.9808 0.0000
vn 0.1175 -0.9931 0.0000
vn 0.0393 -0.9992 0.0000
vn 0.0000 1.0000 0.0000
vn 0.0001 -0.0000 1.0000
vn -0.0001 0.0000 1.0000
usemtl Material
s off
f 85/1/1 64/2/1 107/3/1
f 23/4/2 43/5/2 63/6/2
f 1/7/3 43/8/3 23/9/3
f 128/10/1 106/11/1 126/12/1
f 23/13/4 3/14/4 1/15/4
f 42/16/5 4/17/5 3/14/5
f 41/18/6 5/19/6 4/20/6
f 40/21/7 6/22/7 5/19/7
f 39/23/8 7/24/8 6/22/8
f 38/25/9 8/26/9 7/24/9
f 37/27/10 9/28/10 8/26/10
f 36/29/11 10/30/11 9/28/11
f 35/31/12 11/32/12 10/30/12
f 34/33/13 12/34/13 11/32/13
f 33/35/14 13/36/14 12/34/14
f 32/37/15 14/38/15 13/36/15
f 31/39/16 15/40/16 14/38/16
f 30/41/17 16/42/17 15/40/17
f 29/43/18 17/44/18 16/42/18
f 28/45/19 18/46/19 17/44/19
f 27/47/20 19/48/20 18/46/20
f 26/49/21 20/50/21 19/48/21
f 25/51/22 21/52/22 20/50/22
f 24/53/23 2/54/23 21/52/23
f 65/55/24 45/56/24 43/57/24
f 84/58/25 46/59/25 45/56/25
f 83/60/26 47/61/26 46/59/26
f 82/62/27 48/63/27 47/61/27
f 81/64/28 49/65/28 48/63/28
f 80/66/29 50/67/29 49/65/29
f 79/68/30 51/69/30 50/67/30
f 78/70/31 52/71/31 51/69/31
f 77/72/32 53/73/32 52/71/32
f 76/74/33 54/75/33 53/73/33
f 75/76/34 55/77/34 54/75/34
f 55/77/35 73/78/35 56/79/35
f 73/78/36 57/80/36 56/79/36
f 72/81/37 58/82/37 57/80/37
f 58/82/38 70/83/38 59/84/38
f 70/83/39 60/85/39 59/84/39
f 69/86/40 61/87/40 60/85/40
f 68/88/41 62/89/41 61/87/41
f 67/90/42 63/91/42 62/92/42
f 66/93/43 44/94/43 63/91/43
f 127/95/1 22/96/1 149/97/1
f 107/98/44 87/99/44 85/100/44
f 126/101/45 88/102/45 87/99/45
f 125/103/46 89/104/46 88/102/46
f 124/105/47 90/106/47 89/104/47
f 123/107/48 91/108/48 90/106/48
f 91/108/49 121/109/49 92/110/49
f 121/109/50 93/111/50 92/110/50
f 120/112/51 94/113/51 93/111/51
f 119/114/52 95/115/52 94/113/52
f 118/116/53 96/117/53 95/115/53
f 96/117/54 116/118/54 97/119/54
f 116/118/55 98/120/55 97/119/55
f 115/121/56 99/122/56 98/120/56
f 114/123/57 100/124/57 99/122/57
f 113/125/58 101/126/58 100/124/58
f 112/127/59 102/128/59 101/126/59
f 111/129/60 103/130/60 102/128/60
f 110/131/61 104/132/61 103/133/61
f 109/134/62 105/135/62 104/132/62
f 108/136/63 86/137/63 105/135/63
f 149/138/64 129/139/64 127/140/64
f 168/141/65 130/142/65 129/139/65
f 167/143/66 131/144/66 130/142/66
f 166/145/67 132/146/67 131/147/67
f 165/148/68 133/149/68 132/146/68
f 164/150/69 134/151/69 133/149/69
f 163/152/70 135/153/70 134/151/70
f 162/154/71 136/155/71 135/153/71
f 161/156/72 137/157/72 136/155/72
f 160/158/73 138/159/73 137/157/73
f 159/160/74 139/161/74 138/159/74
f 158/162/75 140/163/75 139/161/75
f 157/164/76 141/165/76 140/163/76
f 156/166/77 142/167/77 141/165/77
f 155/168/78 143/169/78 142/167/78
f 154/170/79 144/171/79 143/169/79
f 153/172/80 145/173/80 144/171/80
f 152/174/81 146/175/81 145/173/81
f 151/176/82 147/177/82 146/175/82
f 150/178/83 128/179/83 147/177/83
f 128/179/84 86/137/84 106/180/84
f 85/1/1 44/181/1 64/2/1
f 86/182/1 148/183/1 150/184/1
f 150/184/1 151/185/1 152/186/1
f 152/186/1 153/187/1 154/188/1
f 154/188/1 155/189/1 156/190/1
f 156/190/1 157/191/1 158/192/1
f 158/192/1 159/193/1 162/194/1
f 160/195/85 161/196/85 162/194/85
f 162/194/85 163/197/85 164/198/85
f 164/198/1 165/199/1 166/200/1
f 166/200/85 167/201/85 168/202/85
f 149/203/1 22/204/1 24/205/1
f 166/200/1 168/202/1 162/194/1
f 162/194/1 164/198/1 166/200/1
f 159/193/1 160/195/1 162/194/1
f 154/188/1 156/190/1 158/192/1
f 150/184/1 152/186/1 154/188/1
f 105/206/1 86/182/1 150/184/1
f 103/207/1 104/208/1 105/206/1
f 101/209/1 102/210/1 103/207/1
f 99/211/1 100/212/1 101/209/1
f 97/213/1 98/214/1 99/211/1
f 95/215/1 96/216/1 93/217/1
f 93/217/1 94/218/1 95/215/1
f 91/219/1 92/220/1 93/217/1
f 89/221/1 90/222/1 91/219/1
f 87/223/1 88/224/1 89/221/1
f 63/6/1 44/225/1 85/226/1
f 85/226/1 87/223/1 89/221/1
f 89/221/1 91/219/1 23/4/1
f 93/217/1 96/216/1 97/213/1
f 97/213/1 99/211/1 101/209/1
f 101/209/1 103/207/1 105/206/1
f 105/206/1 150/184/1 154/188/1
f 154/188/1 158/192/1 162/194/1
f 162/194/1 168/202/1 149/203/1
f 149/203/1 24/205/1 25/227/1
f 25/227/1 26/228/1 23/4/1
f 27/229/1 28/230/1 23/4/1
f 29/231/1 30/232/1 23/4/1
f 31/233/1 32/234/1 33/235/1
f 33/235/1 34/236/1 35/237/1
f 35/237/1 36/238/1 23/4/1
f 37/239/1 38/240/1 23/4/1
f 39/241/1 40/242/1 23/4/1
f 41/243/1 42/244/1 23/4/1
f 43/5/1 45/245/1 47/246/1
f 40/242/1 41/243/1 23/4/1
f 45/245/1 46/247/1 47/246/1
f 38/240/1 39/241/1 23/4/1
f 43/5/1 47/246/1 49/248/1
f 36/238/1 37/239/1 23/4/1
f 47/246/1 48/249/1 49/248/1
f 33/235/1 35/237/1 23/4/1
f 43/5/1 49/248/1 51/250/1
f 31/233/1 33/235/1 23/4/1
f 49/248/1 50/251/1 51/250/1
f 30/232/1 31/233/1 23/4/1
f 43/5/1 51/250/1 53/252/1
f 28/230/1 29/231/1 23/4/1
f 51/250/1 52/253/1 53/252/1
f 26/228/1 27/229/1 23/4/1
f 43/5/1 53/252/1 54/254/1
f 149/203/1 25/227/1 162/194/1
f 43/5/1 54/254/1 56/255/1
f 162/194/1 25/227/1 23/4/1
f 54/254/1 55/256/1 56/255/1
f 154/188/1 162/194/1 105/206/1
f 43/5/1 56/255/1 57/257/1
f 105/206/1 162/194/1 23/4/1
f 43/5/1 57/257/1 59/258/1
f 101/209/1 105/206/1 23/4/1
f 57/257/1 58/259/1 59/258/1
f 97/213/1 101/209/1 23/4/1
f 43/5/1 59/258/1 61/260/1
f 93/217/1 97/213/1 23/4/1
f 59/258/1 60/261/1 61/260/1
f 91/219/1 93/217/1 23/4/1
f 43/5/1 61/260/1 63/6/1
f 85/226/1 89/221/1 63/6/1
f 61/260/86 62/262/86 63/6/86
f 63/6/1 89/221/1 23/4/1
f 1/7/84 65/263/84 43/8/84
f 65/264/1 1/265/1 3/266/1
f 3/266/2 4/267/2 5/268/2
f 5/268/2 6/269/2 7/270/2
f 7/270/2 8/271/2 9/272/2
f 9/272/2 10/273/2 11/274/2
f 11/274/2 12/275/2 15/276/2
f 13/277/2 14/278/2 15/276/2
f 15/276/2 16/279/2 17/280/2
f 17/280/2 18/281/2 19/282/2
f 19/282/2 20/283/2 21/284/2
f 2/285/1 127/286/1 129/287/1
f 19/282/2 21/284/2 15/276/2
f 15/276/2 17/280/2 19/282/2
f 12/275/2 13/277/2 15/276/2
f 7/270/2 9/272/2 11/274/2
f 3/266/2 5/268/2 7/270/2
f 84/288/2 65/264/2 3/266/2
f 82/289/2 83/290/2 84/288/2
f 80/291/2 81/292/2 82/289/2
f 78/293/2 79/294/2 80/291/2
f 76/295/2 77/296/2 78/293/2
f 74/297/2 75/298/2 72/299/2
f 72/299/2 73/300/2 74/297/2
f 70/301/2 71/302/2 72/299/2
f 68/303/2 69/304/2 70/301/2
f 66/305/2 67/306/2 68/303/2
f 126/12/1 107/307/1 64/308/1
f 64/308/2 66/305/2 128/10/2
f 68/303/2 70/301/2 72/299/2
f 72/299/2 75/298/2 76/295/2
f 76/295/2 78/293/2 80/291/2
f 80/291/2 82/289/2 84/288/2
f 84/288/2 3/266/2 7/270/2
f 7/270/2 11/274/2 15/276/2
f 15/276/2 21/284/2 2/285/2
f 2/285/2 129/287/2 128/10/2
f 130/309/2 131/310/2 132/311/2
f 132/311/2 133/312/2 134/313/2
f 134/313/2 135/314/2 128/10/2
f 136/315/2 137/316/2 138/317/2
f 138/317/2 139/318/2 140/319/2
f 140/319/2 141/320/2 128/10/2
f 142/321/2 143/322/2 128/10/2
f 144/323/2 145/324/2 146/325/2
f 146/325/2 147/326/2 144/323/2
f 106/11/2 108/327/2 110/328/2
f 144/323/2 147/326/2 128/10/2
f 108/327/2 109/329/2 110/328/2
f 143/322/2 144/323/2 128/10/2
f 106/11/2 110/328/2 112/330/2
f 141/320/2 142/321/2 128/10/2
f 110/328/2 111/331/2 112/330/2
f 138/317/2 140/319/2 128/10/2
f 106/11/2 112/330/2 114/332/2
f 136/315/2 138/317/2 128/10/2
f 112/330/2 113/333/2 114/332/2
f 135/314/2 136/315/2 128/10/2
f 106/11/2 114/332/2 116/334/2
f 132/311/2 134/313/2 130/309/2
f 114/332/2 115/335/2 116/334/2
f 130/309/2 134/313/2 128/10/2
f 106/11/2 116/334/2 117/336/2
f 129/287/2 130/309/2 128/10/2
f 106/11/2 117/336/2 119/337/2
f 15/276/2 2/285/2 128/10/2
f 117/336/2 118/338/2 119/337/2
f 7/270/2 15/276/2 84/288/2
f 106/11/2 119/337/2 120/339/2
f 84/288/2 15/276/2 128/10/2
f 106/11/2 120/339/2 122/340/2
f 80/291/2 84/288/2 128/10/2
f 120/339/2 121/341/2 122/340/2
f 76/295/2 80/291/2 128/10/2
f 106/11/2 122/340/2 124/342/2
f 72/299/2 76/295/2 68/303/2
f 122/340/2 123/343/2 124/342/2
f 68/303/2 76/295/2 128/10/2
f 106/11/2 124/342/2 126/12/2
f 66/305/2 68/303/2 128/10/2
f 124/342/2 125/344/2 126/12/2
f 126/12/2 64/308/2 128/10/2
f 23/13/4 42/16/4 3/14/4
f 42/16/5 41/345/5 4/17/5
f 41/18/6 40/21/6 5/19/6
f 40/21/7 39/23/7 6/22/7
f 39/23/8 38/25/8 7/24/8
f 38/25/9 37/27/9 8/26/9
f 37/27/10 36/29/10 9/28/10
f 36/29/11 35/31/11 10/30/11
f 35/31/12 34/33/12 11/32/12
f 34/33/13 33/35/13 12/34/13
f 33/35/14 32/37/14 13/36/14
f 32/37/15 31/39/15 14/38/15
f 31/39/16 30/41/16 15/40/16
f 30/41/17 29/43/17 16/42/17
f 29/43/18 28/45/18 17/44/18
f 28/45/19 27/47/19 18/46/19
f 27/47/20 26/49/20 19/48/20
f 26/49/21 25/51/21 20/50/21
f 25/51/22 24/53/22 21/52/22
f 24/53/23 22/346/23 2/54/23
f 65/55/24 84/58/24 45/56/24
f 84/58/25 83/60/25 46/59/25
f 83/60/26 82/62/26 47/61/26
f 82/62/27 81/64/27 48/63/27
f 81/64/28 80/66/28 49/65/28
f 80/66/29 79/68/29 50/67/29
f 79/68/30 78/70/30 51/69/30
f 78/70/31 77/72/31 52/71/31
f 77/72/32 76/74/32 53/73/32
f 76/74/33 75/76/33 54/75/33
f 75/76/34 74/347/34 55/77/34
f 55/77/35 74/347/35 73/78/35
f 73/78/36 72/81/36 57/80/36
f 72/81/37 71/348/37 58/82/37
f 58/82/38 71/348/38 70/83/38
f 70/83/39 69/86/39 60/85/39
f 69/86/40 68/88/40 61/87/40
f 68/88/41 67/349/41 62/89/41
f 67/90/42 66/93/42 63/91/42
f 66/93/43 64/350/43 44/94/43
f 127/95/1 2/351/1 22/96/1
f 107/98/44 126/101/44 87/99/44
f 126/101/45 125/103/45 88/102/45
f 125/103/46 124/105/46 89/104/46
f 124/105/47 123/107/47 90/106/47
f 123/107/48 122/352/48 91/108/48
f 91/108/49 122/352/49 121/109/49
f 121/109/50 120/112/50 93/111/50
f 120/112/51 119/114/51 94/113/51
f 119/114/52 118/116/52 95/115/52
f 118/116/53 117/353/53 96/117/53
f 96/117/54 117/353/54 116/118/54
f 116/118/55 115/121/55 98/120/55
f 115/121/56 114/123/56 99/122/56
f 114/123/57 113/125/57 100/124/57
f 113/125/58 112/127/58 101/126/58
f 112/127/59 111/129/59 102/128/59
f 111/129/60 110/354/60 103/130/60
f 110/131/61 109/134/61 104/132/61
f 109/134/62 108/136/62 105/135/62
f 108/136/63 106/180/63 86/137/63
f 149/138/64 168/141/64 129/139/64
f 168/141/65 167/143/65 130/142/65
f 167/143/66 166/355/66 131/144/66
f 166/145/67 165/148/67 132/146/67
f 165/148/68 164/150/68 133/149/68
f 164/150/69 163/152/69 134/151/69
f 163/152/70 162/154/70 135/153/70
f 162/154/71 161/156/71 136/155/71
f 161/156/72 160/158/72 137/157/72
f 160/158/73 159/160/73 138/159/73
f 159/160/74 158/162/74 139/161/74
f 158/162/75 157/164/75 140/163/75
f 157/164/76 156/166/76 141/165/76
f 156/166/77 155/168/77 142/167/77
f 155/168/78 154/170/78 143/169/78
f 154/170/79 153/172/79 144/171/79
f 153/172/80 152/174/80 145/173/80
f 152/174/81 151/176/81 146/175/81
f 151/176/82 150/178/82 147/177/82
f 150/178/83 148/356/83 128/179/83
f 128/179/3 148/356/3 86/137/3
