# Blender v2.76 (sub 0) OBJ File: ''
# www.blender.org
mtllib wall.mtl
o Cube.001
v 0.500000 -1.000000 -9.999999
v 0.500000 -1.000000 10.000000
v -0.500000 -1.000000 9.999998
v 0.500000 1.000000 -9.999994
v -0.500000 1.000000 -10.000000
v -0.500000 1.000000 9.999996
v 0.500000 1.000000 10.000006
v -0.500000 -1.000000 -10.000004
vt 0.333134 0.666467
vt 0.000200 0.666467
vt 0.000200 0.333533
vt 0.333134 0.333133
vt 0.000200 0.333134
vt 0.000200 0.000200
vt 0.666467 0.333133
vt 0.333533 0.333134
vt 0.333533 0.000200
vt 0.666467 0.666467
vt 0.333533 0.666467
vt 0.333533 0.333533
vt 0.666867 0.000200
vt 0.999800 0.000200
vt 0.999800 0.333134
vt 0.333134 0.999800
vt 0.000200 0.999800
vt 0.000200 0.666867
vt 0.333134 0.333533
vt 0.333133 0.000200
vt 0.666467 0.000200
vt 0.666467 0.333533
vt 0.666867 0.333134
vt 0.333134 0.666866
vn 0.000000 -1.000000 -0.000000
vn -0.000000 1.000000 0.000000
vn 1.000000 0.000000 0.000000
vn -0.000000 -0.000000 1.000000
vn -1.000000 0.000000 0.000000
vn 0.000000 0.000000 -1.000000
usemtl Material.001
s 1
f 1/1/1 2/2/1 3/3/1
f 4/4/2 5/5/2 6/6/2
f 4/7/3 7/8/3 2/9/3
f 7/10/4 6/11/4 3/12/4
f 6/13/5 5/14/5 8/15/5
f 1/16/6 8/17/6 5/18/6
f 8/19/1 1/1/1 3/3/1
f 7/20/2 4/4/2 6/6/2
f 1/21/3 4/7/3 2/9/3
f 2/22/4 7/10/4 3/12/4
f 3/23/5 6/13/5 8/15/5
f 4/24/6 1/16/6 5/18/6
