# Blender v2.76 (sub 0) OBJ File: ''
# www.blender.org
mtllib level1.mtl
o Cube.018
v 106.244423 13.182050 -84.621429
v 106.244423 3.182049 -84.621429
v 106.244423 3.182041 115.378571
v 108.244423 13.182050 -84.621429
v 108.244423 3.182049 -84.621429
v 108.244423 13.182040 115.378571
v 108.244423 3.182041 115.378571
v 106.244423 13.182040 115.378571
vt 0.333333 0.333333
vt 0.666667 0.333333
vt 0.666667 0.666667
vt 0.000000 0.333333
vt 0.333333 0.666667
vt 0.000000 0.000000
vt 0.333333 0.000000
vt 0.666667 0.000000
vt 1.000000 0.333333
vt 0.333333 1.000000
vt 0.000000 1.000000
vt 0.000000 0.666667
vt 1.000000 0.000000
vn -1.000000 0.000000 0.000000
vn 0.000000 0.000000 -1.000000
vn 1.000000 0.000000 0.000000
vn 0.000000 0.000000 1.000000
vn 0.000000 -1.000000 -0.000000
vn 0.000000 1.000000 0.000000
usemtl None.003
s 1
f 1/1/1 2/2/1 3/3/1
f 4/4/2 5/1/2 2/5/2
f 6/6/3 7/7/3 5/1/3
f 8/8/4 3/2/4 7/1/4
f 2/9/5 5/2/5 7/8/5
f 4/5/6 1/10/6 8/11/6
f 8/5/1 1/1/1 3/3/1
f 1/12/2 4/4/2 2/5/2
f 4/4/3 6/6/3 5/1/3
f 6/7/4 8/8/4 7/1/4
f 3/13/5 2/9/5 7/8/5
f 6/12/6 4/5/6 8/11/6
o Cube.017
v 107.244423 -4.317959 115.378571
v -92.755592 -4.317959 115.378555
v -92.755539 -4.317951 -84.621468
v -92.755569 5.682049 -84.621429
v -92.755615 5.682041 115.378532
v 107.244354 5.682041 115.378632
v 107.244469 5.682049 -84.621376
v 107.244423 -4.317951 -84.621422
vt 0.333333 0.666667
vt 0.333333 1.000000
vt 0.000000 1.000000
vt 0.666667 0.666667
vt 0.333333 0.333333
vt 0.333333 0.000000
vt 0.666667 0.000000
vt 0.000000 0.000000
vt 0.666667 0.333333
vt 1.000000 0.000000
vt 0.000000 0.666667
vt 0.000000 0.333333
vt 1.000000 0.333333
vn 0.000000 -1.000000 -0.000000
vn -0.000000 1.000000 0.000000
vn 1.000000 -0.000000 0.000000
vn -0.000000 -0.000000 1.000000
vn -1.000000 -0.000000 -0.000000
vn 0.000000 0.000000 -1.000000
usemtl Material.004
s 1
f 9/14/7 10/15/7 11/16/7
f 12/17/8 13/14/8 14/18/8
f 15/18/9 14/19/9 9/20/9
f 14/21/10 13/19/10 10/18/10
f 13/22/11 12/20/11 11/23/11
f 16/18/12 11/14/12 12/24/12
f 16/24/7 9/14/7 11/16/7
f 15/22/8 12/17/8 14/18/8
f 16/22/9 15/18/9 9/20/9
f 9/25/10 14/21/10 10/18/10
f 10/26/11 13/22/11 11/23/11
f 15/25/12 16/18/12 12/24/12
o Cube.016
v -93.755577 13.182050 -84.621429
v -93.755577 3.182049 -84.621429
v -93.755577 3.182041 115.378571
v -91.755577 13.182050 -84.621429
v -91.755577 3.182049 -84.621429
v -91.755577 13.182040 115.378571
v -91.755577 3.182041 115.378571
v -93.755577 13.182040 115.378571
vt 0.333333 0.333333
vt 0.666667 0.333333
vt 0.666667 0.666667
vt 0.000000 0.333333
vt 0.333333 0.666667
vt 0.000000 0.000000
vt 0.333333 0.000000
vt 0.666667 0.000000
vt 1.000000 0.333333
vt 0.333333 1.000000
vt 0.000000 1.000000
vt 0.000000 0.666667
vt 1.000000 0.000000
vn -1.000000 0.000000 0.000000
vn 0.000000 0.000000 -1.000000
vn 1.000000 0.000000 0.000000
vn 0.000000 0.000000 1.000000
vn 0.000000 -1.000000 -0.000000
vn 0.000000 1.000000 0.000000
usemtl None.003
s 1
f 17/27/13 18/28/13 19/29/13
f 20/30/14 21/27/14 18/31/14
f 22/32/15 23/33/15 21/27/15
f 24/34/16 19/28/16 23/27/16
f 18/35/17 21/28/17 23/34/17
f 20/31/18 17/36/18 24/37/18
f 24/31/13 17/27/13 19/29/13
f 17/38/14 20/30/14 18/31/14
f 20/30/15 22/32/15 21/27/15
f 22/33/16 24/34/16 23/27/16
f 19/39/17 18/35/17 23/34/17
f 22/38/18 20/31/18 24/37/18
o Cube.015
v -92.755577 13.182050 -83.621422
v -92.755577 3.182049 -83.621422
v 107.244423 3.182049 -83.621437
v -92.755577 13.182050 -85.621422
v -92.755577 3.182050 -85.621422
v 107.244423 13.182050 -85.621437
v 107.244423 3.182050 -85.621437
v 107.244423 13.182050 -83.621437
vt 0.333333 0.333333
vt 0.666667 0.333333
vt 0.666667 0.666667
vt 0.000000 0.333333
vt 0.333333 0.666667
vt 0.000000 0.000000
vt 0.333333 0.000000
vt 0.666667 0.000000
vt 1.000000 0.333333
vt 0.333333 1.000000
vt 0.000000 1.000000
vt 0.000000 0.666667
vt 1.000000 0.000000
vn 0.000000 0.000000 1.000000
vn -1.000000 0.000000 0.000000
vn -0.000000 0.000000 -1.000000
vn 1.000000 0.000000 0.000000
vn -0.000000 -1.000000 -0.000000
vn 0.000000 1.000000 0.000000
usemtl None.003
s 1
f 25/40/19 26/41/19 27/42/19
f 28/43/20 29/40/20 26/44/20
f 30/45/21 31/46/21 29/40/21
f 32/47/22 27/41/22 31/40/22
f 26/48/23 29/41/23 31/47/23
f 28/44/24 25/49/24 32/50/24
f 32/44/19 25/40/19 27/42/19
f 25/51/20 28/43/20 26/44/20
f 28/43/21 30/45/21 29/40/21
f 30/46/22 32/47/22 31/40/22
f 27/52/23 26/48/23 31/47/23
f 30/51/24 28/44/24 32/50/24
o Cube.013
v -416.991669 -5.000004 304.104248
v -570.200562 -5.000004 432.661774
v -698.758057 -4.999996 279.452820
v -698.758057 5.000004 279.452881
v -570.200623 4.999996 432.661774
v -416.991699 4.999996 304.104340
v -545.549133 5.000004 150.895386
v -545.549194 -4.999996 150.895370
vt 0.333333 0.666667
vt 0.333333 1.000000
vt 0.000000 1.000000
vt 0.666667 0.666667
vt 0.333333 0.333333
vt 0.333333 0.000000
vt 0.666667 0.000000
vt 0.000000 0.000000
vt 0.666667 0.333333
vt 1.000000 0.000000
vt 0.000000 0.666667
vt 0.000000 0.333333
vt 1.000000 0.333333
vn -0.000000 -1.000000 -0.000000
vn 0.000000 1.000000 0.000000
vn 0.766000 -0.000000 -0.642800
vn 0.642800 -0.000000 0.766000
vn -0.766000 -0.000000 0.642800
vn -0.642800 0.000000 -0.766000
usemtl Material.003
s 1
f 33/53/25 34/54/25 35/55/25
f 36/56/26 37/53/26 38/57/26
f 39/57/27 38/58/27 33/59/27
f 38/60/28 37/58/28 34/57/28
f 37/61/29 36/59/29 35/62/29
f 40/57/30 35/53/30 36/63/30
f 40/63/25 33/53/25 35/55/25
f 39/61/26 36/56/26 38/57/26
f 40/61/27 39/57/27 33/59/27
f 33/64/28 38/60/28 34/57/28
f 34/65/29 37/61/29 35/62/29
f 39/64/30 40/57/30 36/63/30
o Cube.001_Cube.010
v -3.141792 -5.000001 120.560608
v -144.563156 -5.000001 261.981964
v -172.847397 -4.999999 233.697662
v -172.847412 5.000001 233.697693
v -144.563171 4.999999 261.981995
v -3.141838 4.999999 120.560669
v -31.426025 5.000001 92.276314
v -31.426064 -4.999999 92.276337
vt 0.000000 0.000000
vt 0.333333 0.000000
vt 0.333333 0.500000
vt 0.666667 0.500000
vt 0.066667 0.500000
vt 0.066667 1.000000
vt 0.050000 1.000000
vt 0.016667 1.000000
vt 0.016667 0.500000
vt 0.033333 0.500000
vt 0.033333 1.000000
vt 0.050000 0.500000
vt 0.000000 1.000000
vt 0.000000 0.500000
vt 0.666667 0.000000
vn -0.000000 -1.000000 -0.000000
vn 0.000000 1.000000 0.000000
vn 0.707100 -0.000000 -0.707100
vn 0.707100 -0.000000 0.707100
vn -0.707100 -0.000000 0.707100
vn -0.707100 0.000000 -0.707100
usemtl Material.002
s 1
f 41/66/31 42/67/31 43/68/31
f 44/69/32 45/68/32 46/67/32
f 47/70/33 46/71/33 41/72/33
f 46/73/34 45/74/34 42/75/34
f 45/76/35 44/75/35 43/77/35
f 48/74/36 43/73/36 44/78/36
f 48/79/31 41/66/31 43/68/31
f 47/80/32 44/69/32 46/67/32
f 48/77/33 47/70/33 41/72/33
f 41/76/34 46/73/34 42/75/34
f 42/72/35 45/76/35 43/77/35
f 47/79/36 48/74/36 44/78/36
o Cone.001
v -165.827774 5.018545 230.000092
v -165.827774 -14.781454 250.000092
v -169.729584 5.018545 230.384384
v -173.481445 5.018546 231.522507
v -176.939178 5.018546 233.370697
v -179.969910 5.018546 235.857956
v -182.457169 5.018547 238.888687
v -184.305359 5.018547 242.346420
v -185.443481 5.018547 246.098282
v -185.827774 5.018547 250.000092
v -185.443481 5.018547 253.901901
v -184.305359 5.018547 257.653748
v -182.457169 5.018547 261.111481
v -179.969910 5.018546 264.142212
v -176.939178 5.018546 266.629486
v -173.481445 5.018546 268.477692
v -169.729568 5.018545 269.615784
v -165.827774 5.018545 270.000092
v -161.925964 5.018545 269.615784
v -158.174103 5.018544 268.477692
v -154.716354 5.018544 266.629486
v -151.685623 5.018544 264.142212
v -149.198380 5.018543 261.111481
v -147.350174 5.018543 257.653748
v -146.212067 5.018543 253.901886
v -145.827774 5.018543 250.000076
v -146.212067 5.018543 246.098267
v -147.350189 5.018543 242.346405
v -149.198395 5.018543 238.888672
v -151.685654 5.018544 235.857941
v -154.716385 5.018544 233.370682
v -158.174133 5.018544 231.522491
v -161.925995 5.018545 230.384384
vt 0.025146 0.530860
vt 0.293186 0.949429
vt 0.000000 0.553972
vt 0.462304 0.398711
vt 0.757901 0.000000
vt 0.491955 0.422495
vt 0.056329 0.509219
vt 0.092350 0.489880
vt 0.131826 0.473586
vt 0.173240 0.460962
vt 0.214999 0.452496
vt 0.255500 0.448511
vt 0.293186 0.449160
vt 0.763143 0.559790
vt 1.000000 1.000000
vt 0.731960 0.581431
vt 0.799165 0.540451
vt 0.838641 0.524156
vt 0.880054 0.511533
vt 0.921814 0.503067
vt 0.962315 0.499082
vt 1.000000 0.499731
vt 0.694275 1.000000
vt 0.731960 0.499082
vt 0.731960 0.999350
vt 0.653774 0.996015
vt 0.612015 0.987548
vt 0.570601 0.974925
vt 0.531125 0.958631
vt 0.495103 0.939291
vt 0.463920 0.917650
vt 0.438775 0.894539
vt 0.724204 0.499082
vt 0.757901 0.496187
vt 0.686565 0.497077
vt 0.646429 0.490251
vt 0.605338 0.478866
vt 0.564873 0.463358
vt 0.526588 0.444324
vt 0.438775 0.373885
vt 0.430344 0.158842
vt 0.115468 0.422988
vt 0.008431 0.289668
vt 0.000000 0.246343
vt 0.008431 0.158843
vt 0.000000 0.202168
vt 0.024969 0.118031
vt 0.048978 0.081301
vt 0.079536 0.050065
vt 0.115468 0.025523
vt 0.155394 0.008618
vt 0.197779 0.000000
vt 0.240995 0.000000
vt 0.283380 0.008618
vt 0.323306 0.025523
vt 0.359239 0.050065
vt 0.389797 0.081301
vt 0.413806 0.118031
vt 0.438775 0.202168
vt 0.438775 0.246343
vt 0.430344 0.289668
vt 0.413806 0.330480
vt 0.389797 0.367210
vt 0.359239 0.398446
vt 0.323306 0.422988
vt 0.283380 0.439893
vt 0.240995 0.448511
vt 0.197779 0.448511
vt 0.155394 0.439893
vt 0.079536 0.398446
vt 0.024969 0.330480
vt 0.048978 0.367209
vn 0.204700 -0.709000 -0.674900
vn -0.069100 -0.709000 -0.701900
vn 0.332500 -0.708900 -0.622000
vn 0.447400 -0.709000 -0.545200
vn 0.545200 -0.709000 -0.447400
vn 0.622000 -0.709000 -0.332500
vn 0.674900 -0.709000 -0.204700
vn 0.701900 -0.709000 -0.069100
vn 0.701900 -0.709000 0.069100
vn 0.674900 -0.708900 0.204700
vn 0.622000 -0.709000 0.332500
vn 0.545200 -0.708900 0.447400
vn 0.447400 -0.709000 0.545200
vn 0.332400 -0.709000 0.622000
vn 0.204700 -0.709000 0.674900
vn 0.069100 -0.709000 0.701900
vn -0.069100 -0.709000 0.701900
vn -0.204700 -0.708900 0.674900
vn -0.332400 -0.709000 0.622000
vn -0.447400 -0.708900 0.545200
vn -0.545200 -0.709000 0.447400
vn -0.622000 -0.709000 0.332500
vn -0.674900 -0.708900 0.204700
vn -0.701900 -0.709000 0.069100
vn -0.701900 -0.709000 -0.069100
vn -0.674900 -0.708900 -0.204700
vn -0.622000 -0.709000 -0.332500
vn -0.545200 -0.708900 -0.447400
vn -0.447400 -0.708900 -0.545200
vn -0.332500 -0.709000 -0.622000
vn 0.069100 -0.708900 -0.701900
vn -0.204700 -0.708900 -0.674900
vn 0.000000 1.000000 0.000000
usemtl None
s off
f 80/81/37 50/82/37 81/83/37
f 49/84/38 50/85/38 51/86/38
f 79/87/39 50/82/39 80/81/39
f 78/88/40 50/82/40 79/87/40
f 77/89/41 50/82/41 78/88/41
f 76/90/42 50/82/42 77/89/42
f 75/91/43 50/82/43 76/90/43
f 74/92/44 50/82/44 75/91/44
f 73/93/45 50/82/45 74/92/45
f 72/94/46 50/95/46 73/96/46
f 71/97/47 50/95/47 72/94/47
f 70/98/48 50/95/48 71/97/48
f 69/99/49 50/95/49 70/98/49
f 68/100/50 50/95/50 69/99/50
f 67/101/51 50/95/51 68/100/51
f 66/102/52 50/95/52 67/101/52
f 65/103/53 50/104/53 66/105/53
f 64/106/54 50/104/54 65/103/54
f 63/107/55 50/104/55 64/106/55
f 62/108/56 50/104/56 63/107/56
f 61/109/57 50/104/57 62/108/57
f 60/110/58 50/104/58 61/109/58
f 59/111/59 50/104/59 60/110/59
f 58/112/60 50/104/60 59/111/60
f 57/113/61 50/85/61 58/114/61
f 56/115/62 50/85/62 57/113/62
f 55/116/63 50/85/63 56/115/63
f 54/117/64 50/85/64 55/116/64
f 53/118/65 50/85/65 54/117/65
f 52/119/66 50/85/66 53/118/66
f 81/120/67 50/85/67 49/84/67
f 51/86/68 50/85/68 52/119/68
f 65/121/69 77/122/69 81/123/69
f 81/123/69 49/124/69 52/125/69
f 51/126/69 52/125/69 49/124/69
f 53/127/69 54/128/69 52/125/69
f 55/129/69 56/130/69 54/128/69
f 57/131/69 58/132/69 56/130/69
f 59/133/69 60/134/69 58/132/69
f 61/135/69 62/136/69 60/134/69
f 63/137/69 64/138/69 65/121/69
f 65/121/69 66/139/69 67/140/69
f 67/140/69 68/141/69 69/142/69
f 69/142/69 70/143/69 67/140/69
f 71/144/69 72/145/69 73/146/69
f 73/146/69 74/147/69 71/144/69
f 75/148/69 76/149/69 74/147/69
f 77/122/69 78/150/69 80/151/69
f 79/152/69 80/151/69 78/150/69
f 81/123/69 52/125/69 65/121/69
f 54/128/69 56/130/69 52/125/69
f 58/132/69 60/134/69 56/130/69
f 62/136/69 63/137/69 65/121/69
f 65/121/69 67/140/69 71/144/69
f 70/143/69 71/144/69 67/140/69
f 74/147/69 76/149/69 77/122/69
f 77/122/69 80/151/69 81/123/69
f 52/125/69 56/130/69 65/121/69
f 60/134/69 62/136/69 65/121/69
f 65/121/69 71/144/69 77/122/69
f 74/147/69 77/122/69 71/144/69
f 56/130/69 60/134/69 65/121/69
o Cube.000_Cube.009
v -320.726562 -5.000001 116.729385
v -473.935486 -5.000001 245.286911
v -499.646942 -4.999999 214.645096
v -499.646973 5.000001 214.645126
v -473.935486 4.999999 245.286926
v -320.726624 4.999999 116.729439
v -346.438049 5.000001 86.087585
v -346.438080 -4.999999 86.087616
vt 0.333333 0.666667
vt 0.333333 1.000000
vt 0.000000 1.000000
vt 0.666667 0.666667
vt 0.333333 0.333333
vt 0.333333 0.000000
vt 0.666667 0.000000
vt 0.000000 0.000000
vt 0.666667 0.333333
vt 1.000000 0.000000
vt 0.000000 0.666667
vt 0.000000 0.333333
vt 1.000000 0.333333
vn -0.000000 -1.000000 -0.000000
vn 0.000000 1.000000 0.000000
vn 0.766000 -0.000000 -0.642800
vn 0.642800 -0.000000 0.766000
vn -0.766000 -0.000000 0.642800
vn -0.642800 0.000000 -0.766000
usemtl Material.002
s 1
f 82/153/70 83/154/70 84/155/70
f 85/156/71 86/153/71 87/157/71
f 88/157/72 87/158/72 82/159/72
f 87/160/73 86/158/73 83/157/73
f 86/161/74 85/159/74 84/162/74
f 89/157/75 84/153/75 85/163/75
f 89/163/70 82/153/70 84/155/70
f 88/161/71 85/156/71 87/157/71
f 89/161/72 88/157/72 82/159/72
f 82/164/73 87/160/73 83/157/73
f 83/165/74 86/161/74 84/162/74
f 88/164/75 89/157/75 85/163/75
o Cone
v -324.945099 5.018545 78.794479
v -324.945099 -14.781454 98.794479
v -328.846893 5.018545 79.178772
v -332.598755 5.018546 80.316887
v -336.056488 5.018546 82.165085
v -339.087219 5.018546 84.652344
v -341.574493 5.018547 87.683075
v -343.422699 5.018547 91.140808
v -344.560791 5.018547 94.892670
v -344.945099 5.018547 98.794479
v -344.560791 5.018547 102.696281
v -343.422699 5.018547 106.448143
v -341.574493 5.018547 109.905884
v -339.087219 5.018546 112.936615
v -336.056488 5.018546 115.423874
v -332.598755 5.018546 117.272072
v -328.846893 5.018545 118.410187
v -324.945099 5.018545 118.794479
v -321.043274 5.018545 118.410187
v -317.291412 5.018544 117.272064
v -313.833679 5.018544 115.423866
v -310.802948 5.018544 112.936607
v -308.315704 5.018543 109.905869
v -306.467499 5.018543 106.448135
v -305.329376 5.018543 102.696266
v -304.945099 5.018543 98.794456
v -305.329407 5.018543 94.892654
v -306.467529 5.018543 91.140793
v -308.315735 5.018543 87.683052
v -310.802979 5.018544 84.652328
v -313.833710 5.018544 82.165070
v -317.291443 5.018544 80.316879
v -321.043335 5.018545 79.178772
vt 0.025146 0.530860
vt 0.293186 0.949429
vt 0.000000 0.553972
vt 0.462304 0.398711
vt 0.757901 0.000000
vt 0.491955 0.422495
vt 0.056329 0.509219
vt 0.092350 0.489880
vt 0.131826 0.473586
vt 0.173240 0.460962
vt 0.214999 0.452496
vt 0.255500 0.448511
vt 0.293186 0.449160
vt 0.763143 0.559790
vt 1.000000 1.000000
vt 0.731960 0.581431
vt 0.799165 0.540451
vt 0.838641 0.524156
vt 0.880054 0.511533
vt 0.921814 0.503067
vt 0.962315 0.499082
vt 1.000000 0.499731
vt 0.694275 1.000000
vt 0.731960 0.499082
vt 0.731960 0.999350
vt 0.653774 0.996015
vt 0.612015 0.987548
vt 0.570601 0.974925
vt 0.531125 0.958631
vt 0.495103 0.939291
vt 0.463920 0.917650
vt 0.438775 0.894539
vt 0.724204 0.499082
vt 0.757901 0.496187
vt 0.686565 0.497077
vt 0.646429 0.490251
vt 0.605338 0.478866
vt 0.564873 0.463358
vt 0.526588 0.444324
vt 0.438775 0.373885
vt 0.155394 0.439893
vt 0.008431 0.289668
vt 0.155394 0.008618
vt 0.000000 0.246343
vt 0.000000 0.202168
vt 0.008431 0.158843
vt 0.024969 0.118031
vt 0.048978 0.081301
vt 0.079536 0.050065
vt 0.115468 0.025523
vt 0.197779 0.000000
vt 0.240995 0.000000
vt 0.283380 0.008618
vt 0.323306 0.025523
vt 0.359239 0.050065
vt 0.389797 0.081301
vt 0.413806 0.118031
vt 0.430344 0.158842
vt 0.438775 0.202168
vt 0.438775 0.246343
vt 0.430344 0.289668
vt 0.413806 0.330480
vt 0.389797 0.367210
vt 0.359239 0.398446
vt 0.323306 0.422988
vt 0.240995 0.448511
vt 0.283380 0.439893
vt 0.197779 0.448511
vt 0.115468 0.422988
vt 0.079536 0.398446
vt 0.048978 0.367209
vt 0.024969 0.330480
vn 0.204700 -0.708900 -0.674900
vn -0.069100 -0.709000 -0.701900
vn 0.332500 -0.709000 -0.622000
vn 0.447400 -0.709000 -0.545200
vn 0.545200 -0.708900 -0.447400
vn 0.622000 -0.709000 -0.332500
vn 0.674900 -0.708900 -0.204700
vn 0.701900 -0.709000 -0.069100
vn 0.701900 -0.708900 0.069100
vn 0.674900 -0.709000 0.204700
vn 0.622000 -0.709000 0.332500
vn 0.545200 -0.708900 0.447400
vn 0.447400 -0.709000 0.545200
vn 0.332500 -0.708900 0.622000
vn 0.204700 -0.709000 0.674900
vn 0.069100 -0.708900 0.701900
vn -0.069100 -0.709000 0.701900
vn -0.204700 -0.708900 0.674900
vn -0.332500 -0.709000 0.622000
vn -0.447400 -0.709000 0.545200
vn -0.545200 -0.708900 0.447400
vn -0.622000 -0.708900 0.332500
vn -0.674900 -0.708900 0.204700
vn -0.701900 -0.709000 0.069100
vn -0.701900 -0.709000 -0.069100
vn -0.674900 -0.709000 -0.204700
vn -0.622000 -0.709000 -0.332500
vn -0.545200 -0.708900 -0.447400
vn -0.447400 -0.709000 -0.545200
vn -0.332500 -0.709000 -0.622000
vn 0.069100 -0.709000 -0.701900
vn -0.204700 -0.708900 -0.674900
vn 0.000000 1.000000 0.000000
usemtl None
s off
f 121/166/76 91/167/76 122/168/76
f 90/169/77 91/170/77 92/171/77
f 120/172/78 91/167/78 121/166/78
f 119/173/79 91/167/79 120/172/79
f 118/174/80 91/167/80 119/173/80
f 117/175/81 91/167/81 118/174/81
f 116/176/82 91/167/82 117/175/82
f 115/177/83 91/167/83 116/176/83
f 114/178/84 91/167/84 115/177/84
f 113/179/85 91/180/85 114/181/85
f 112/182/86 91/180/86 113/179/86
f 111/183/87 91/180/87 112/182/87
f 110/184/88 91/180/88 111/183/88
f 109/185/89 91/180/89 110/184/89
f 108/186/90 91/180/90 109/185/90
f 107/187/91 91/180/91 108/186/91
f 106/188/92 91/189/92 107/190/92
f 105/191/93 91/189/93 106/188/93
f 104/192/94 91/189/94 105/191/94
f 103/193/95 91/189/95 104/192/95
f 102/194/96 91/189/96 103/193/96
f 101/195/97 91/189/97 102/194/97
f 100/196/98 91/189/98 101/195/98
f 99/197/99 91/189/99 100/196/99
f 98/198/100 91/170/100 99/199/100
f 97/200/101 91/170/101 98/198/101
f 96/201/102 91/170/102 97/200/102
f 95/202/103 91/170/103 96/201/103
f 94/203/104 91/170/104 95/202/104
f 93/204/105 91/170/105 94/203/105
f 122/205/106 91/170/106 90/169/106
f 92/171/107 91/170/107 93/204/107
f 117/206/108 122/207/108 98/208/108
f 122/207/108 90/209/108 92/210/108
f 92/210/108 93/211/108 122/207/108
f 94/212/108 95/213/108 122/207/108
f 96/214/108 97/215/108 98/208/108
f 98/208/108 99/216/108 100/217/108
f 100/217/108 101/218/108 102/219/108
f 102/219/108 103/220/108 100/217/108
f 104/221/108 105/222/108 106/223/108
f 106/223/108 107/224/108 104/221/108
f 108/225/108 109/226/108 107/224/108
f 110/227/108 111/228/108 112/229/108
f 112/229/108 113/230/108 115/231/108
f 114/232/108 115/231/108 113/230/108
f 116/233/108 117/206/108 112/229/108
f 118/234/108 119/235/108 122/207/108
f 120/236/108 121/237/108 122/207/108
f 122/207/108 93/211/108 94/212/108
f 95/213/108 96/214/108 98/208/108
f 98/208/108 100/217/108 117/206/108
f 103/220/108 112/229/108 100/217/108
f 107/224/108 109/226/108 112/229/108
f 110/227/108 112/229/108 109/226/108
f 115/231/108 116/233/108 112/229/108
f 119/235/108 120/236/108 122/207/108
f 122/207/108 95/213/108 98/208/108
f 103/220/108 107/224/108 112/229/108
f 107/224/108 103/220/108 104/221/108
f 117/206/108 100/217/108 112/229/108
f 122/207/108 117/206/108 118/234/108
o Cube.007
v -187.490845 -5.000001 262.532288
v -328.912201 -5.000001 121.110924
v -300.627899 -4.999999 92.826683
v -300.627930 5.000001 92.826668
v -328.912231 4.999999 121.110901
v -187.490906 4.999999 262.532227
v -159.206543 5.000001 234.248047
v -159.206573 -4.999999 234.248016
vt 0.000000 0.000000
vt 0.333333 0.000000
vt 0.333333 0.500000
vt 0.666667 0.500000
vt 0.066667 0.500000
vt 0.066667 1.000000
vt 0.050000 1.000000
vt 0.016667 1.000000
vt 0.016667 0.500000
vt 0.033333 0.500000
vt 0.033333 1.000000
vt 0.050000 0.500000
vt 0.000000 1.000000
vt 0.000000 0.500000
vt 0.666667 0.000000
vn 0.000000 -1.000000 -0.000000
vn -0.000000 1.000000 0.000000
vn 0.707100 -0.000000 0.707100
vn -0.707100 0.000000 0.707100
vn -0.707100 -0.000000 -0.707100
vn 0.707100 0.000000 -0.707100
usemtl Material.002
s 1
f 123/238/109 124/239/109 125/240/109
f 126/241/110 127/240/110 128/239/110
f 129/242/111 128/243/111 123/244/111
f 128/245/112 127/246/112 124/247/112
f 127/248/113 126/247/113 125/249/113
f 130/246/114 125/245/114 126/250/114
f 130/251/109 123/238/109 125/240/109
f 129/252/110 126/241/110 128/239/110
f 130/249/111 129/242/111 123/244/111
f 123/248/112 128/245/112 124/247/112
f 124/244/113 127/248/113 125/249/113
f 129/251/114 130/246/114 126/250/114
