# Blender v2.76 (sub 0) OBJ File: 'lv2.blend'
# www.blender.org
mtllib level2.mtl
o Cube.018
v 106.244423 13.182050 -72.460899
v 106.244423 3.182049 -72.460899
v 106.244423 3.182041 127.539101
v 108.244423 13.182050 -72.460899
v 108.244423 3.182049 -72.460899
v 108.244423 13.182040 127.539101
v 108.244423 3.182041 127.539101
v 106.244423 13.182040 127.539101
vt 0.333333 0.333333
vt 0.666667 0.333333
vt 0.666667 0.666667
vt 0.000000 0.333333
vt 0.333333 0.666667
vt 0.000000 0.000000
vt 0.333333 0.000000
vt 0.666667 0.000000
vt 1.000000 0.333333
vt 0.333333 1.000000
vt 0.000000 1.000000
vt 0.000000 0.666667
vt 1.000000 0.000000
vn -1.000000 0.000000 0.000000
vn 0.000000 0.000000 -1.000000
vn 1.000000 0.000000 0.000000
vn 0.000000 0.000000 1.000000
vn 0.000000 -1.000000 -0.000000
vn 0.000000 1.000000 0.000000
usemtl None.003
s 1
f 1/1/1 2/2/1 3/3/1
f 4/4/2 5/1/2 2/5/2
f 6/6/3 7/7/3 5/1/3
f 8/8/4 3/2/4 7/1/4
f 2/9/5 5/2/5 7/8/5
f 4/5/6 1/10/6 8/11/6
f 8/5/1 1/1/1 3/3/1
f 1/12/2 4/4/2 2/5/2
f 4/4/3 6/6/3 5/1/3
f 6/7/4 8/8/4 7/1/4
f 3/13/5 2/9/5 7/8/5
f 6/12/6 4/5/6 8/11/6
o Cube.017
v 107.244423 -4.317959 127.539101
v -92.755592 -4.317959 127.539085
v -92.755539 -4.317951 -72.460938
v -92.755569 5.682049 -72.460899
v -92.755615 5.682041 127.539062
v 107.244354 5.682041 127.539162
v 107.244469 5.682049 -72.460846
v 107.244423 -4.317951 -72.460892
vt 0.333333 0.666667
vt 0.333333 1.000000
vt 0.000000 1.000000
vt 0.666667 0.666667
vt 0.333333 0.333333
vt 0.333333 0.000000
vt 0.666667 0.000000
vt 0.000000 0.000000
vt 0.666667 0.333333
vt 1.000000 0.000000
vt 0.000000 0.666667
vt 0.000000 0.333333
vt 1.000000 0.333333
vn 0.000000 -1.000000 -0.000000
vn -0.000000 1.000000 0.000000
vn 1.000000 -0.000000 0.000000
vn -0.000000 -0.000000 1.000000
vn -1.000000 -0.000000 -0.000000
vn 0.000000 0.000000 -1.000000
usemtl Material.004
s 1
f 9/14/7 10/15/7 11/16/7
f 12/17/8 13/14/8 14/18/8
f 15/18/9 14/19/9 9/20/9
f 14/21/10 13/19/10 10/18/10
f 13/22/11 12/20/11 11/23/11
f 16/18/12 11/14/12 12/24/12
f 16/24/7 9/14/7 11/16/7
f 15/22/8 12/17/8 14/18/8
f 16/22/9 15/18/9 9/20/9
f 9/25/10 14/21/10 10/18/10
f 10/26/11 13/22/11 11/23/11
f 15/25/12 16/18/12 12/24/12
o Cube.016
v -93.755577 13.182050 -72.460899
v -93.755577 3.182049 -72.460899
v -93.755577 3.182041 127.539101
v -91.755577 13.182050 -72.460899
v -91.755577 3.182049 -72.460899
v -91.755577 13.182040 127.539101
v -91.755577 3.182041 127.539101
v -93.755577 13.182040 127.539101
vt 0.333333 0.333333
vt 0.666667 0.333333
vt 0.666667 0.666667
vt 0.000000 0.333333
vt 0.333333 0.666667
vt 0.000000 0.000000
vt 0.333333 0.000000
vt 0.666667 0.000000
vt 1.000000 0.333333
vt 0.333333 1.000000
vt 0.000000 1.000000
vt 0.000000 0.666667
vt 1.000000 0.000000
vn -1.000000 0.000000 0.000000
vn 0.000000 0.000000 -1.000000
vn 1.000000 0.000000 0.000000
vn 0.000000 0.000000 1.000000
vn 0.000000 -1.000000 -0.000000
vn 0.000000 1.000000 0.000000
usemtl None.003
s 1
f 17/27/13 18/28/13 19/29/13
f 20/30/14 21/27/14 18/31/14
f 22/32/15 23/33/15 21/27/15
f 24/34/16 19/28/16 23/27/16
f 18/35/17 21/28/17 23/34/17
f 20/31/18 17/36/18 24/37/18
f 24/31/13 17/27/13 19/29/13
f 17/38/14 20/30/14 18/31/14
f 20/30/15 22/32/15 21/27/15
f 22/33/16 24/34/16 23/27/16
f 19/39/17 18/35/17 23/34/17
f 22/38/18 20/31/18 24/37/18
o Cube.015
v -92.755577 13.182050 -71.460892
v -92.755577 3.182049 -71.460892
v 107.244423 3.182049 -71.460907
v -92.755577 13.182050 -73.460892
v -92.755577 3.182050 -73.460892
v 107.244423 13.182050 -73.460907
v 107.244423 3.182050 -73.460907
v 107.244423 13.182050 -71.460907
vt 0.333333 0.333333
vt 0.666667 0.333333
vt 0.666667 0.666667
vt 0.000000 0.333333
vt 0.333333 0.666667
vt 0.000000 0.000000
vt 0.333333 0.000000
vt 0.666667 0.000000
vt 1.000000 0.333333
vt 0.333333 1.000000
vt 0.000000 1.000000
vt 0.000000 0.666667
vt 1.000000 0.000000
vn 0.000000 0.000000 1.000000
vn -1.000000 0.000000 0.000000
vn -0.000000 0.000000 -1.000000
vn 1.000000 0.000000 0.000000
vn -0.000000 -1.000000 -0.000000
vn 0.000000 1.000000 0.000000
usemtl None.003
s 1
f 25/40/19 26/41/19 27/42/19
f 28/43/20 29/40/20 26/44/20
f 30/45/21 31/46/21 29/40/21
f 32/47/22 27/41/22 31/40/22
f 26/48/23 29/41/23 31/47/23
f 28/44/24 25/49/24 32/50/24
f 32/44/19 25/40/19 27/42/19
f 25/51/20 28/43/20 26/44/20
f 28/43/21 30/45/21 29/40/21
f 30/46/22 32/47/22 31/40/22
f 27/52/23 26/48/23 31/47/23
f 30/51/24 28/44/24 32/50/24
o Cube.013
v -456.376801 -108.119576 123.059303
v -609.585693 -108.119576 251.616821
v -738.143188 -108.119560 98.407875
v -738.143188 -98.119560 98.407921
v -609.585754 -98.119576 251.616821
v -456.376831 -98.119576 123.059387
v -584.934265 -98.119560 -30.149567
v -584.934326 -108.119560 -30.149582
vt 0.333333 0.666667
vt 0.333333 1.000000
vt 0.000000 1.000000
vt 0.666667 0.666667
vt 0.333333 0.333333
vt 0.333333 0.000000
vt 0.666667 0.000000
vt 0.000000 0.000000
vt 0.666667 0.333333
vt 1.000000 0.000000
vt 0.000000 0.666667
vt 0.000000 0.333333
vt 1.000000 0.333333
vn -0.000000 -1.000000 -0.000000
vn 0.000000 1.000000 0.000000
vn 0.766000 -0.000000 -0.642800
vn 0.642800 -0.000000 0.766000
vn -0.766000 -0.000000 0.642800
vn -0.642800 0.000000 -0.766000
usemtl Material.003
s 1
f 33/53/25 34/54/25 35/55/25
f 36/56/26 37/53/26 38/57/26
f 39/57/27 38/58/27 33/59/27
f 38/60/28 37/58/28 34/57/28
f 37/61/29 36/59/29 35/62/29
f 40/57/30 35/53/30 36/63/30
f 40/63/25 33/53/25 35/55/25
f 39/61/26 36/56/26 38/57/26
f 40/61/27 39/57/27 33/59/27
f 33/64/28 38/60/28 34/57/28
f 34/65/29 37/61/29 35/62/29
f 39/64/30 40/57/30 36/63/30
o Cube.001_Cube.010
v -3.141792 -5.000001 132.721130
v -144.563156 -5.000001 274.142487
v -172.847397 -4.999999 245.858185
v -172.847412 5.000001 245.858215
v -144.563171 4.999999 274.142517
v -3.141838 4.999999 132.721191
v -31.426025 5.000001 104.436836
v -31.426064 -4.999999 104.436859
vt 0.000000 0.000000
vt 0.333333 0.000000
vt 0.333333 0.500000
vt 0.666667 0.500000
vt 0.066667 0.500000
vt 0.066667 1.000000
vt 0.050000 1.000000
vt 0.016667 1.000000
vt 0.016667 0.500000
vt 0.033333 0.500000
vt 0.033333 1.000000
vt 0.050000 0.500000
vt 0.000000 1.000000
vt 0.000000 0.500000
vt 0.666667 0.000000
vn -0.000000 -1.000000 -0.000000
vn 0.000000 1.000000 0.000000
vn 0.707100 -0.000000 -0.707100
vn 0.707100 -0.000000 0.707100
vn -0.707100 -0.000000 0.707100
vn -0.707100 0.000000 -0.707100
usemtl Material.002
s 1
f 41/66/31 42/67/31 43/68/31
f 44/69/32 45/68/32 46/67/32
f 47/70/33 46/71/33 41/72/33
f 46/73/34 45/74/34 42/75/34
f 45/76/35 44/75/35 43/77/35
f 48/74/36 43/73/36 44/78/36
f 48/79/31 41/66/31 43/68/31
f 47/80/32 44/69/32 46/67/32
f 48/77/33 47/70/33 41/72/33
f 41/76/34 46/73/34 42/75/34
f 42/72/35 45/76/35 43/77/35
f 47/79/36 48/74/36 44/78/36
o Cone.001
v -165.827774 5.018545 242.160614
v -165.827774 -14.781454 262.160614
v -169.729584 5.018545 242.544907
v -173.481445 5.018546 243.683029
v -176.939178 5.018546 245.531219
v -179.969910 5.018546 248.018478
v -182.457169 5.018547 251.049210
v -184.305359 5.018547 254.506943
v -185.443481 5.018547 258.258820
v -185.827774 5.018547 262.160614
v -185.443481 5.018547 266.062408
v -184.305359 5.018547 269.814270
v -182.457169 5.018547 273.272003
v -179.969910 5.018546 276.302734
v -176.939178 5.018546 278.790009
v -173.481445 5.018546 280.638214
v -169.729568 5.018545 281.776306
v -165.827774 5.018545 282.160614
v -161.925964 5.018545 281.776306
v -158.174103 5.018544 280.638214
v -154.716354 5.018544 278.790009
v -151.685623 5.018544 276.302734
v -149.198380 5.018543 273.272003
v -147.350174 5.018543 269.814270
v -146.212067 5.018543 266.062408
v -145.827774 5.018543 262.160583
v -146.212067 5.018543 258.258789
v -147.350189 5.018543 254.506927
v -149.198395 5.018543 251.049194
v -151.685654 5.018544 248.018463
v -154.716385 5.018544 245.531204
v -158.174133 5.018544 243.683014
v -161.925995 5.018545 242.544907
vt 0.025146 0.530860
vt 0.293186 0.949429
vt 0.000000 0.553972
vt 0.462304 0.398711
vt 0.757901 0.000000
vt 0.491955 0.422495
vt 0.056329 0.509219
vt 0.092350 0.489880
vt 0.131826 0.473586
vt 0.173240 0.460962
vt 0.214999 0.452496
vt 0.255500 0.448511
vt 0.293186 0.449160
vt 0.763143 0.559790
vt 1.000000 1.000000
vt 0.731960 0.581431
vt 0.799165 0.540451
vt 0.838641 0.524156
vt 0.880054 0.511533
vt 0.921814 0.503067
vt 0.962315 0.499082
vt 1.000000 0.499731
vt 0.694275 1.000000
vt 0.731960 0.499082
vt 0.731960 0.999350
vt 0.653774 0.996015
vt 0.612015 0.987548
vt 0.570601 0.974925
vt 0.531125 0.958631
vt 0.495103 0.939291
vt 0.463920 0.917650
vt 0.438775 0.894539
vt 0.724204 0.499082
vt 0.757901 0.496187
vt 0.686565 0.497077
vt 0.646429 0.490251
vt 0.605338 0.478866
vt 0.564873 0.463358
vt 0.526588 0.444324
vt 0.438775 0.373885
vt 0.430344 0.158842
vt 0.115468 0.422988
vt 0.008431 0.289668
vt 0.000000 0.246343
vt 0.008431 0.158843
vt 0.000000 0.202168
vt 0.024969 0.118031
vt 0.048978 0.081301
vt 0.079536 0.050065
vt 0.115468 0.025523
vt 0.155394 0.008618
vt 0.197779 0.000000
vt 0.283380 0.008618
vt 0.240995 0.000000
vt 0.323306 0.025523
vt 0.359239 0.050065
vt 0.389797 0.081301
vt 0.413806 0.118031
vt 0.438775 0.202168
vt 0.438775 0.246343
vt 0.430344 0.289668
vt 0.413806 0.330480
vt 0.389797 0.367210
vt 0.359239 0.398446
vt 0.323306 0.422988
vt 0.283380 0.439893
vt 0.240995 0.448511
vt 0.197779 0.448511
vt 0.155394 0.439893
vt 0.079536 0.398446
vt 0.024969 0.330480
vt 0.048978 0.367209
vn 0.204700 -0.709000 -0.674900
vn -0.069100 -0.709000 -0.701900
vn 0.332500 -0.708900 -0.622000
vn 0.447400 -0.709000 -0.545200
vn 0.545200 -0.708900 -0.447400
vn 0.622000 -0.709000 -0.332500
vn 0.674900 -0.708900 -0.204700
vn 0.701900 -0.709000 -0.069100
vn 0.701900 -0.708900 0.069100
vn 0.674900 -0.709000 0.204700
vn 0.622000 -0.708900 0.332500
vn 0.545200 -0.708900 0.447400
vn 0.447400 -0.709000 0.545200
vn 0.332400 -0.709000 0.622000
vn 0.204700 -0.709000 0.674900
vn 0.069100 -0.709000 0.701900
vn -0.069100 -0.709000 0.701900
vn -0.204700 -0.708900 0.674900
vn -0.332400 -0.709000 0.622000
vn -0.447400 -0.708900 0.545200
vn -0.545200 -0.709000 0.447400
vn -0.622000 -0.708900 0.332500
vn -0.674900 -0.709000 0.204700
vn -0.701900 -0.708900 0.069100
vn -0.701900 -0.709000 -0.069100
vn -0.674900 -0.708900 -0.204700
vn -0.622000 -0.709000 -0.332500
vn -0.545200 -0.708900 -0.447400
vn -0.447400 -0.708900 -0.545200
vn -0.332500 -0.709000 -0.622000
vn 0.069100 -0.708900 -0.701900
vn -0.204700 -0.708900 -0.674900
vn 0.000000 1.000000 0.000000
usemtl None
s off
f 80/81/37 50/82/37 81/83/37
f 49/84/38 50/85/38 51/86/38
f 79/87/39 50/82/39 80/81/39
f 78/88/40 50/82/40 79/87/40
f 77/89/41 50/82/41 78/88/41
f 76/90/42 50/82/42 77/89/42
f 75/91/43 50/82/43 76/90/43
f 74/92/44 50/82/44 75/91/44
f 73/93/45 50/82/45 74/92/45
f 72/94/46 50/95/46 73/96/46
f 71/97/47 50/95/47 72/94/47
f 70/98/48 50/95/48 71/97/48
f 69/99/49 50/95/49 70/98/49
f 68/100/50 50/95/50 69/99/50
f 67/101/51 50/95/51 68/100/51
f 66/102/52 50/95/52 67/101/52
f 65/103/53 50/104/53 66/105/53
f 64/106/54 50/104/54 65/103/54
f 63/107/55 50/104/55 64/106/55
f 62/108/56 50/104/56 63/107/56
f 61/109/57 50/104/57 62/108/57
f 60/110/58 50/104/58 61/109/58
f 59/111/59 50/104/59 60/110/59
f 58/112/60 50/104/60 59/111/60
f 57/113/61 50/85/61 58/114/61
f 56/115/62 50/85/62 57/113/62
f 55/116/63 50/85/63 56/115/63
f 54/117/64 50/85/64 55/116/64
f 53/118/65 50/85/65 54/117/65
f 52/119/66 50/85/66 53/118/66
f 81/120/67 50/85/67 49/84/67
f 51/86/68 50/85/68 52/119/68
f 65/121/69 77/122/69 81/123/69
f 81/123/69 49/124/69 52/125/69
f 51/126/69 52/125/69 49/124/69
f 53/127/69 54/128/69 52/125/69
f 55/129/69 56/130/69 54/128/69
f 57/131/69 58/132/69 60/133/69
f 59/134/69 60/133/69 58/132/69
f 61/135/69 62/136/69 60/133/69
f 63/137/69 64/138/69 65/121/69
f 65/121/69 66/139/69 67/140/69
f 67/140/69 68/141/69 69/142/69
f 69/142/69 70/143/69 67/140/69
f 71/144/69 72/145/69 73/146/69
f 73/146/69 74/147/69 71/144/69
f 75/148/69 76/149/69 74/147/69
f 77/122/69 78/150/69 80/151/69
f 79/152/69 80/151/69 78/150/69
f 81/123/69 52/125/69 65/121/69
f 54/128/69 56/130/69 52/125/69
f 57/131/69 60/133/69 56/130/69
f 62/136/69 63/137/69 65/121/69
f 65/121/69 67/140/69 71/144/69
f 70/143/69 71/144/69 67/140/69
f 74/147/69 76/149/69 77/122/69
f 77/122/69 80/151/69 81/123/69
f 52/125/69 56/130/69 60/133/69
f 60/133/69 62/136/69 65/121/69
f 65/121/69 71/144/69 77/122/69
f 74/147/69 77/122/69 71/144/69
f 52/125/69 60/133/69 65/121/69
o Cube.000_Cube.009
v -511.257446 -56.321785 147.803833
v -443.113708 -38.890636 335.027222
v -480.701447 -38.890640 348.707977
v -480.999512 -28.928688 347.888977
v -443.411804 -28.928688 334.208252
v -511.555511 -46.359833 146.984894
v -549.143250 -46.359840 160.665588
v -548.845154 -56.321781 161.484650
vt 0.333333 0.666667
vt 0.333333 1.000000
vt 0.000000 1.000000
vt 0.666667 0.666667
vt 0.333333 0.333333
vt 0.333333 0.000000
vt 0.666667 0.000000
vt 0.000000 0.000000
vt 0.666667 0.333333
vt 1.000000 0.000000
vt 0.000000 0.666667
vt 0.000000 0.333333
vt 1.000000 0.333333
vn 0.029800 -0.996200 0.081900
vn -0.029800 0.996200 -0.081900
vn -0.340700 -0.087200 -0.936100
vn 0.939700 -0.000000 -0.342000
vn 0.340700 0.087200 0.936100
vn -0.939700 -0.000000 0.342000
usemtl Material.002
s 1
f 82/153/70 83/154/70 84/155/70
f 85/156/71 86/153/71 87/157/71
f 88/157/72 87/158/72 82/159/72
f 87/160/73 86/158/73 83/157/73
f 86/161/74 85/159/74 84/162/74
f 89/157/75 84/153/75 85/163/75
f 89/163/70 82/153/70 84/155/70
f 88/161/71 85/156/71 87/157/71
f 89/161/72 88/157/72 82/159/72
f 82/164/73 87/160/73 83/157/73
f 83/165/74 86/161/74 84/162/74
f 88/164/75 89/157/75 85/163/75
o Cone
v -467.175507 11.156574 333.684631
v -467.175507 -8.643425 353.684631
v -471.077301 11.156574 334.068939
v -474.829163 11.156576 335.207031
v -478.286896 11.156576 337.055237
v -481.317627 11.156576 339.542480
v -483.804901 11.156576 342.573242
v -485.653107 11.156576 346.030975
v -486.791199 11.156576 349.782837
v -487.175507 11.156576 353.684631
v -486.791199 11.156576 357.586426
v -485.653107 11.156576 361.338287
v -483.804901 11.156576 364.796021
v -481.317627 11.156576 367.826782
v -478.286896 11.156576 370.314026
v -474.829163 11.156576 372.162231
v -471.077301 11.156574 373.300323
v -467.175507 11.156574 373.684631
v -463.273682 11.156574 373.300323
v -459.521820 11.156574 372.162231
v -456.064087 11.156574 370.314026
v -453.033356 11.156574 367.826752
v -450.546112 11.156572 364.796021
v -448.697906 11.156572 361.338287
v -447.559784 11.156572 357.586426
v -447.175507 11.156572 353.684601
v -447.559814 11.156572 349.782806
v -448.697937 11.156572 346.030945
v -450.546143 11.156572 342.573212
v -453.033386 11.156574 339.542480
v -456.064117 11.156574 337.055237
v -459.521851 11.156574 335.207031
v -463.273743 11.156574 334.068909
vt 0.025146 0.530860
vt 0.293186 0.949429
vt 0.000000 0.553972
vt 0.462304 0.398711
vt 0.757901 0.000000
vt 0.491955 0.422495
vt 0.056329 0.509219
vt 0.092350 0.489880
vt 0.131826 0.473586
vt 0.173240 0.460962
vt 0.214999 0.452496
vt 0.255500 0.448511
vt 0.293186 0.449160
vt 0.763143 0.559790
vt 1.000000 1.000000
vt 0.731960 0.581431
vt 0.799165 0.540451
vt 0.838641 0.524156
vt 0.880054 0.511533
vt 0.921814 0.503067
vt 0.962315 0.499082
vt 1.000000 0.499731
vt 0.694275 1.000000
vt 0.731960 0.499082
vt 0.731960 0.999350
vt 0.653774 0.996015
vt 0.612015 0.987548
vt 0.570601 0.974925
vt 0.531125 0.958631
vt 0.495103 0.939291
vt 0.463920 0.917650
vt 0.438775 0.894539
vt 0.724204 0.499082
vt 0.757901 0.496187
vt 0.686565 0.497077
vt 0.646429 0.490251
vt 0.605338 0.478866
vt 0.564873 0.463358
vt 0.526588 0.444324
vt 0.438775 0.373885
vt 0.430344 0.158842
vt 0.115468 0.422988
vt 0.155394 0.008618
vt 0.008431 0.289668
vt 0.000000 0.246343
vt 0.024969 0.330480
vt 0.000000 0.202168
vt 0.008431 0.158843
vt 0.024969 0.118031
vt 0.048978 0.081301
vt 0.079536 0.050065
vt 0.115468 0.025523
vt 0.197779 0.000000
vt 0.240995 0.000000
vt 0.283380 0.008618
vt 0.323306 0.025523
vt 0.359239 0.050065
vt 0.389797 0.081301
vt 0.413806 0.118031
vt 0.438775 0.202168
vt 0.438775 0.246343
vt 0.430344 0.289668
vt 0.413806 0.330480
vt 0.389797 0.367210
vt 0.359239 0.398446
vt 0.323306 0.422988
vt 0.240995 0.448511
vt 0.283380 0.439893
vt 0.197779 0.448511
vt 0.155394 0.439893
vt 0.079536 0.398446
vt 0.048978 0.367209
vn 0.204700 -0.708900 -0.674900
vn -0.069100 -0.709000 -0.701900
vn 0.332400 -0.709000 -0.622000
vn 0.447400 -0.709000 -0.545200
vn 0.545200 -0.709000 -0.447400
vn 0.622000 -0.708900 -0.332500
vn 0.674900 -0.709000 -0.204700
vn 0.701900 -0.708900 -0.069100
vn 0.701900 -0.709000 0.069100
vn 0.674900 -0.709000 0.204700
vn 0.622000 -0.709000 0.332500
vn 0.545200 -0.708900 0.447400
vn 0.447400 -0.709000 0.545200
vn 0.332500 -0.708900 0.622000
vn 0.204700 -0.709000 0.674900
vn 0.069100 -0.708900 0.701900
vn -0.069100 -0.709000 0.701900
vn -0.204700 -0.708900 0.674900
vn -0.332500 -0.709000 0.622000
vn -0.447400 -0.709000 0.545200
vn -0.545200 -0.709000 0.447400
vn -0.622000 -0.709000 0.332500
vn -0.674900 -0.708900 0.204700
vn -0.701900 -0.708900 0.069100
vn -0.701900 -0.708900 -0.069100
vn -0.674900 -0.708900 -0.204700
vn -0.622000 -0.708900 -0.332500
vn -0.545200 -0.709000 -0.447400
vn -0.447400 -0.709000 -0.545200
vn -0.332500 -0.709000 -0.622000
vn 0.069100 -0.709000 -0.701900
vn -0.204700 -0.708900 -0.674900
vn 0.000000 1.000000 0.000000
usemtl None
s off
f 121/166/76 91/167/76 122/168/76
f 90/169/77 91/170/77 92/171/77
f 120/172/78 91/167/78 121/166/78
f 119/173/79 91/167/79 120/172/79
f 118/174/80 91/167/80 119/173/80
f 117/175/81 91/167/81 118/174/81
f 116/176/82 91/167/82 117/175/82
f 115/177/83 91/167/83 116/176/83
f 114/178/84 91/167/84 115/177/84
f 113/179/85 91/180/85 114/181/85
f 112/182/86 91/180/86 113/179/86
f 111/183/87 91/180/87 112/182/87
f 110/184/88 91/180/88 111/183/88
f 109/185/89 91/180/89 110/184/89
f 108/186/90 91/180/90 109/185/90
f 107/187/91 91/180/91 108/186/91
f 106/188/92 91/189/92 107/190/92
f 105/191/93 91/189/93 106/188/93
f 104/192/94 91/189/94 105/191/94
f 103/193/95 91/189/95 104/192/95
f 102/194/96 91/189/96 103/193/96
f 101/195/97 91/189/97 102/194/97
f 100/196/98 91/189/98 101/195/98
f 99/197/99 91/189/99 100/196/99
f 98/198/100 91/170/100 99/199/100
f 97/200/101 91/170/101 98/198/101
f 96/201/102 91/170/102 97/200/102
f 95/202/103 91/170/103 96/201/103
f 94/203/104 91/170/104 95/202/104
f 93/204/105 91/170/105 94/203/105
f 122/205/106 91/170/106 90/169/106
f 92/171/107 91/170/107 93/204/107
f 106/206/108 118/207/108 98/208/108
f 122/209/108 90/210/108 121/211/108
f 92/212/108 93/213/108 94/214/108
f 94/214/108 95/215/108 96/216/108
f 96/216/108 97/217/108 98/208/108
f 98/208/108 99/218/108 100/219/108
f 100/219/108 101/220/108 102/221/108
f 102/221/108 103/222/108 104/223/108
f 104/223/108 105/224/108 106/206/108
f 106/206/108 107/225/108 108/226/108
f 108/226/108 109/227/108 110/228/108
f 110/228/108 111/229/108 108/226/108
f 112/230/108 113/231/108 115/232/108
f 114/233/108 115/232/108 113/231/108
f 116/234/108 117/235/108 118/207/108
f 118/207/108 119/236/108 120/237/108
f 120/237/108 121/211/108 92/212/108
f 90/210/108 92/212/108 121/211/108
f 94/214/108 96/216/108 98/208/108
f 98/208/108 100/219/108 106/206/108
f 102/221/108 104/223/108 106/206/108
f 106/206/108 108/226/108 112/230/108
f 111/229/108 112/230/108 108/226/108
f 115/232/108 116/234/108 112/230/108
f 118/207/108 120/237/108 92/212/108
f 92/212/108 94/214/108 98/208/108
f 100/219/108 102/221/108 106/206/108
f 106/206/108 112/230/108 118/207/108
f 116/234/108 118/207/108 112/230/108
f 92/212/108 98/208/108 118/207/108
o Cube.007
v -259.173767 -13.696548 306.471191
v -446.397125 3.734601 374.614929
v -460.077881 3.734598 337.027191
v -459.258911 13.696548 336.729126
v -445.578156 13.696549 374.316833
v -258.354797 -3.734595 306.173126
v -272.035522 -3.734603 268.585388
v -272.854553 -13.696546 268.883484
vt 0.000000 0.000000
vt 0.333333 0.000000
vt 0.333333 0.500000
vt 0.666667 0.500000
vt 0.066667 0.500000
vt 0.066667 1.000000
vt 0.050000 1.000000
vt 0.016667 1.000000
vt 0.016667 0.500000
vt 0.033333 0.500000
vt 0.033333 1.000000
vt 0.050000 0.500000
vt 0.000000 1.000000
vt 0.000000 0.500000
vt 0.666667 0.000000
vn -0.081900 -0.996200 0.029800
vn 0.081900 0.996200 -0.029800
vn 0.936100 -0.087200 -0.340700
vn 0.342000 -0.000000 0.939700
vn -0.936100 0.087100 0.340700
vn -0.936100 0.087200 0.340700
vn -0.342000 0.000000 -0.939700
usemtl Material.002
s 1
f 123/238/109 124/239/109 125/240/109
f 126/241/110 127/240/110 128/239/110
f 129/242/111 128/243/111 123/244/111
f 128/245/112 127/246/112 124/247/112
f 127/248/113 126/247/114 125/249/114
f 130/246/115 125/245/115 126/250/115
f 130/251/109 123/238/109 125/240/109
f 129/252/110 126/241/110 128/239/110
f 130/249/111 129/242/111 123/244/111
f 123/248/112 128/245/112 124/247/112
f 124/244/113 127/248/113 125/249/114
f 129/251/115 130/246/115 126/250/115
