# Blender v2.76 (sub 0) OBJ File: ''
# www.blender.org
mtllib OpenPlatform.mtl
o Cube.003
v 100.000000 2.500000 -99.000008
v 100.000000 12.500000 -99.000008
v -100.000000 2.500000 -98.999992
v -100.000000 12.500000 -98.999992
v 100.000000 2.500000 -101.000008
v 100.000000 12.500000 -101.000008
v -100.000000 2.500000 -100.999992
v -100.000000 12.500000 -100.999992
vt 0.333333 0.333333
vt 0.666667 0.333333
vt 0.666667 0.666667
vt 0.000000 0.333333
vt 0.333333 0.666667
vt 0.000000 0.000000
vt 0.333333 0.000000
vt 0.666667 0.000000
vt 1.000000 0.333333
vt 0.333333 1.000000
vt 0.000000 1.000000
vt 0.000000 0.666667
vt 1.000000 0.000000
vn 0.000000 0.000000 1.000000
vn -1.000000 0.000000 0.000000
vn -0.000000 0.000000 -1.000000
vn 1.000000 0.000000 0.000000
vn 0.000000 -1.000000 0.000000
vn 0.000000 1.000000 0.000000
usemtl None
s off
f 4/1/1 3/2/1 1/3/1
f 8/4/2 7/1/2 3/5/2
f 6/6/3 5/7/3 7/1/3
f 2/8/4 1/2/4 5/1/4
f 3/9/5 7/2/5 5/8/5
f 8/5/6 4/10/6 2/11/6
f 2/5/1 4/1/1 1/3/1
f 4/12/2 8/4/2 3/5/2
f 8/4/3 6/6/3 7/1/3
f 6/7/4 2/8/4 5/1/4
f 1/13/5 3/9/5 5/8/5
f 6/12/6 8/5/6 2/11/6
o Cube.002
v -101.000000 2.500000 100.000000
v -101.000000 12.500000 100.000000
v -101.000000 2.500000 -100.000000
v -101.000000 12.500000 -100.000000
v -99.000000 2.500000 100.000000
v -99.000000 12.500000 100.000000
v -99.000000 2.500000 -100.000000
v -99.000000 12.500000 -100.000000
vt 0.333333 0.333333
vt 0.666667 0.333333
vt 0.666667 0.666667
vt 0.000000 0.333333
vt 0.333333 0.666667
vt 0.000000 0.000000
vt 0.333333 0.000000
vt 0.666667 0.000000
vt 1.000000 0.333333
vt 0.333333 1.000000
vt 0.000000 1.000000
vt 0.000000 0.666667
vt 1.000000 0.000000
vn -1.000000 0.000000 0.000000
vn 0.000000 0.000000 -1.000000
vn 1.000000 0.000000 0.000000
vn 0.000000 0.000000 1.000000
vn 0.000000 -1.000000 0.000000
vn 0.000000 1.000000 0.000000
usemtl None
s off
f 12/14/7 11/15/7 9/16/7
f 16/17/8 15/14/8 11/18/8
f 14/19/9 13/20/9 15/14/9
f 10/21/10 9/15/10 13/14/10
f 11/22/11 15/15/11 13/21/11
f 16/18/12 12/23/12 10/24/12
f 10/18/7 12/14/7 9/16/7
f 12/25/8 16/17/8 11/18/8
f 16/17/9 14/19/9 15/14/9
f 14/20/10 10/21/10 13/14/10
f 9/26/11 11/22/11 13/21/11
f 14/25/12 16/18/12 10/24/12
o Cube.001
v 99.000000 2.500000 100.000000
v 99.000000 12.500000 100.000000
v 99.000000 2.500000 -100.000000
v 99.000000 12.500000 -100.000000
v 101.000000 2.500000 100.000000
v 101.000000 12.500000 100.000000
v 101.000000 2.500000 -100.000000
v 101.000000 12.500000 -100.000000
vt 0.333333 0.333333
vt 0.666667 0.333333
vt 0.666667 0.666667
vt 0.000000 0.333333
vt 0.333333 0.666667
vt 0.000000 0.000000
vt 0.333333 0.000000
vt 0.666667 0.000000
vt 1.000000 0.333333
vt 0.333333 1.000000
vt 0.000000 1.000000
vt 0.000000 0.666667
vt 1.000000 0.000000
vn -1.000000 0.000000 0.000000
vn 0.000000 0.000000 -1.000000
vn 1.000000 0.000000 0.000000
vn 0.000000 0.000000 1.000000
vn 0.000000 -1.000000 0.000000
vn 0.000000 1.000000 0.000000
usemtl None
s off
f 20/27/13 19/28/13 17/29/13
f 24/30/14 23/27/14 19/31/14
f 22/32/15 21/33/15 23/27/15
f 18/34/16 17/28/16 21/27/16
f 19/35/17 23/28/17 21/34/17
f 24/31/18 20/36/18 18/37/18
f 18/31/13 20/27/13 17/29/13
f 20/38/14 24/30/14 19/31/14
f 24/30/15 22/32/15 23/27/15
f 22/33/16 18/34/16 21/27/16
f 17/39/17 19/35/17 21/34/17
f 22/38/18 24/31/18 18/37/18
o Cube
v 100.000000 -5.000000 -99.999992
v 100.000000 -5.000000 100.000000
v -100.000015 -5.000000 99.999985
v -99.999962 -5.000000 -100.000038
v 100.000046 5.000000 -99.999947
v 99.999931 5.000000 100.000061
v -100.000038 5.000000 99.999962
v -99.999992 5.000000 -100.000000
vt 0.333333 0.666667
vt 0.333333 1.000000
vt 0.000000 1.000000
vt 0.666667 0.666667
vt 0.333333 0.333333
vt 0.333333 0.000000
vt 0.666667 0.000000
vt 0.000000 0.000000
vt 0.666667 0.333333
vt 1.000000 0.000000
vt 0.000000 0.666667
vt 0.000000 0.333333
vt 1.000000 0.333333
vn 0.000000 -1.000000 0.000000
vn 0.000000 1.000000 0.000000
vn 1.000000 0.000000 0.000000
vn -0.000000 0.000000 1.000000
vn -1.000000 -0.000000 -0.000000
vn 0.000000 0.000000 -1.000000
usemtl Material
s off
f 26/40/19 27/41/19 28/42/19
f 32/43/20 31/40/20 30/44/20
f 29/44/21 30/45/21 26/46/21
f 30/47/22 31/45/22 27/44/22
f 31/48/23 32/46/23 28/49/23
f 25/44/24 28/40/24 32/50/24
f 25/50/19 26/40/19 28/42/19
f 29/48/20 32/43/20 30/44/20
f 25/48/21 29/44/21 26/46/21
f 26/51/22 30/47/22 27/44/22
f 27/52/23 31/48/23 28/49/23
f 29/51/24 25/44/24 32/50/24
